<svg viewBox="0 0 1963 1621" xmlns="http://www.w3.org/2000/svg" fill-rule="evenodd" clip-rule="evenodd" stroke-linejoin="round" stroke-miterlimit="2"><path d="M1354.81 73.06c0-39.873-32.372-72.245-72.245-72.245H76.335C36.462.815 4.09 33.187 4.09 73.06v1474.31c0 39.873 32.372 72.245 72.245 72.245h1206.23c39.873 0 72.245-32.372 72.245-72.245V73.06z" fill="#3165d4"/><path d="M1354.81 73.06c0-39.873-32.372-72.245-72.245-72.245H76.335C36.462.815 4.09 33.187 4.09 73.06v1474.31c0 39.873 32.372 72.245 72.245 72.245h1206.23c39.873 0 72.245-32.372 72.245-72.245V73.06zm-40.351 0v1474.31c0 17.602-14.291 31.894-31.894 31.894H76.335c-17.603 0-31.894-14.292-31.894-31.894V73.06c0-17.603 14.291-31.894 31.894-31.894h1206.23c17.603 0 31.894 14.291 31.894 31.894z" fill="#fff"/><path fill="#e2e2e2" fill-opacity=".5" d="M175.278 251.984h966.131v53.176H175.278zM175.278 358.335h715.91v53.176h-715.91zM175.278 467.167h827.119v53.176H175.278zM175.278 808.834h966.131v53.176H175.278zM175.278 702.482h715.91v53.176h-715.91zM175.278 589.484h827.119v53.176H175.278zM175.278 1039.98h715.91v53.176h-715.91zM175.278 1164.98h715.91v53.176h-715.91zM175.278 1289.98h715.91v53.176h-715.91zM175.278 926.984h827.119v53.176H175.278z"/><path d="M951.739 1082.39l247.876 238.481 681.762-708.623-247.876-238.48-681.762 708.622z" fill="#3165d4"/><clipPath id="a"><path d="M983.344 305.301h975.847v975.847H983.344z"/></clipPath><g clip-path="url(#a)"><path d="M1776.22 315.75l-153.33 153.33c-16.63 76.808 94.739 189.478 172.481 172.481l153.33-153.289a257.965 257.965 0 0110.491 72.863c0 65.138-24.681 130.195-74.409 179.963-54.932 54.932-128.649 79.613-200.496 74.042-37.936-2.927-75.303 10.938-102.22 37.855l-392.86 392.86c-23.501 23.502-54.363 35.293-85.264 35.293-67.537 0-122.022-55.46-120.599-123.201.651-29.966 12.442-59.77 35.293-82.662l392.86-392.901c26.917-26.876 40.742-64.284 37.855-102.22-5.571-71.846 19.151-145.563 74.002-200.455 49.809-49.768 114.865-74.408 180.044-74.408a259.36 259.36 0 0172.822 10.449zm-711.555 843.417c0 22.485 18.175 40.661 40.66 40.661 22.485 0 40.66-18.216 40.66-40.661 0-22.444-18.175-40.66-40.66-40.66-22.485 0-40.66 18.175-40.66 40.66z" fill="#fff" fill-rule="nonzero"/></g></svg>