<?xml version="1.0" encoding="UTF-8" ?>
<!DOCTYPE svg PUBLIC "-//W3C//DTD SVG 1.1//EN" "http://www.w3.org/Graphics/SVG/1.1/DTD/svg11.dtd">
<svg width="500pt" height="500pt" viewBox="0 0 500 500" version="1.1" xmlns="http://www.w3.org/2000/svg">
<g id="#828282ff">
<path fill="#828282" opacity="1.00" d=" M 244.42 0.00 L 256.43 0.00 C 315.75 1.53 374.30 24.80 418.05 64.95 C 452.81 96.31 478.31 137.75 490.82 182.85 C 496.38 202.58 499.28 222.99 500.00 243.45 L 500.00 256.47 C 498.80 297.36 487.67 337.97 467.36 373.51 C 448.38 406.99 421.52 435.95 389.58 457.41 C 350.48 483.87 303.75 498.65 256.58 500.00 L 243.54 500.00 C 196.91 498.69 150.69 484.26 111.85 458.37 C 71.82 431.90 39.70 393.63 20.68 349.56 C 7.87 320.25 1.00 288.46 0.00 256.52 L 0.00 243.49 C 0.75 221.53 4.07 199.64 10.42 178.59 C 26.53 123.89 62.15 75.26 109.36 43.30 C 148.96 16.23 196.48 1.12 244.42 0.00 Z" />
</g>
</svg>
