<?xml version="1.0" encoding="UTF-8" ?>
<!DOCTYPE svg PUBLIC "-//W3C//DTD SVG 1.1//EN" "http://www.w3.org/Graphics/SVG/1.1/DTD/svg11.dtd">
<svg width="500pt" height="500pt" viewBox="0 0 500 500" version="1.1" xmlns="http://www.w3.org/2000/svg">
<g id="#d46e31ff">
<path fill="#d46e31" opacity="1.00" d=" M 238.74 0.00 L 261.33 0.00 C 298.37 1.92 335.06 11.71 367.77 29.27 C 415.25 54.47 454.12 95.47 476.72 144.24 C 490.57 173.82 498.31 206.15 500.00 238.75 L 500.00 261.34 C 498.01 299.81 487.49 337.92 468.65 371.57 C 450.75 403.86 425.56 432.05 395.52 453.50 C 356.51 481.59 309.22 497.65 261.27 500.00 L 238.68 500.00 C 193.87 497.75 149.61 483.67 112.21 458.81 C 61.08 425.30 23.11 372.35 7.94 313.12 C 3.48 296.14 1.00 278.68 0.00 261.17 L 0.00 238.27 C 2.79 181.96 24.86 126.64 62.42 84.50 C 74.93 70.27 89.09 57.50 104.50 46.49 C 143.50 18.40 190.79 2.34 238.74 0.00 M 234.46 78.69 C 209.25 80.98 184.56 88.90 162.76 101.76 C 138.30 116.13 117.51 136.68 102.83 160.96 C 85.59 189.35 76.86 222.83 78.12 256.03 C 79.08 285.73 88.02 315.12 103.65 340.38 C 118.01 363.64 138.00 383.40 161.44 397.46 C 189.73 414.51 223.01 423.12 256.02 421.88 C 299.03 420.55 341.30 402.25 371.55 371.62 C 402.22 341.36 420.55 299.06 421.88 256.01 C 423.16 222.25 414.10 188.21 396.28 159.51 C 380.62 134.18 358.27 113.01 332.06 98.84 C 302.47 82.67 268.04 75.63 234.46 78.69 Z" />
</g>
<g id="#3165d4ff">
<path fill="#3165d4" opacity="1.00" d=" M 234.46 78.69 C 268.04 75.63 302.47 82.67 332.06 98.84 C 358.27 113.01 380.62 134.18 396.28 159.51 C 414.10 188.21 423.16 222.25 421.88 256.01 C 420.55 299.06 402.22 341.36 371.55 371.62 C 341.30 402.25 299.03 420.55 256.02 421.88 C 223.01 423.12 189.73 414.51 161.44 397.46 C 138.00 383.40 118.01 363.64 103.65 340.38 C 88.02 315.12 79.08 285.73 78.12 256.03 C 76.86 222.83 85.59 189.35 102.83 160.96 C 117.51 136.68 138.30 116.13 162.76 101.76 C 184.56 88.90 209.25 80.98 234.46 78.69 Z" />
</g>
</svg>
