<?xml version="1.0" encoding="UTF-8" ?>
<!DOCTYPE svg PUBLIC "-//W3C//DTD SVG 1.1//EN" "http://www.w3.org/Graphics/SVG/1.1/DTD/svg11.dtd">
<svg width="500pt" height="500pt" viewBox="0 0 500 500" version="1.1" xmlns="http://www.w3.org/2000/svg">
<g id="#d46e31ff">
<path fill="#d46e31" opacity="1.00" d=" M 238.83 0.00 L 250.00 0.00 C 250.00 25.99 250.00 51.99 250.00 77.98 C 217.78 77.97 185.62 87.21 158.39 104.42 C 130.01 122.25 107.01 148.55 93.28 179.14 C 80.25 207.76 75.40 240.02 79.31 271.22 C 83.29 303.73 96.84 335.00 117.88 360.11 C 137.38 383.56 163.23 401.68 191.97 411.93 C 210.54 418.59 230.27 421.99 250.00 422.02 C 250.00 448.01 250.00 474.01 250.00 500.00 L 238.73 500.00 C 190.74 497.65 143.44 481.57 104.41 453.46 C 56.99 419.69 22.04 368.84 7.75 312.37 C 3.40 295.60 0.98 278.38 0.00 261.09 L 0.00 238.57 C 2.47 187.11 21.04 136.49 52.87 95.93 C 68.82 75.64 87.82 57.72 109.18 43.22 C 147.26 17.09 192.75 2.25 238.83 0.00 Z" />
</g>
<g id="#2ab53aff">
<path fill="#2ab53a" opacity="1.00" d=" M 250.00 0.00 L 261.27 0.00 C 300.30 1.99 338.92 12.79 372.94 32.11 C 420.31 58.69 458.49 101.21 479.83 151.16 C 491.75 178.86 498.44 208.72 500.00 238.81 L 500.00 261.27 C 498.03 299.53 487.63 337.44 468.98 370.96 C 450.95 403.71 425.43 432.28 394.94 453.92 C 356.03 481.76 308.94 497.67 261.21 500.00 L 250.00 500.00 C 250.00 474.01 250.00 448.01 250.00 422.02 C 250.00 307.34 250.00 192.66 250.00 77.98 C 250.00 51.99 250.00 25.99 250.00 0.00 Z" />
</g>
<g id="#3165d4ff">
<path fill="#3165d4" opacity="1.00" d=" M 158.39 104.42 C 185.62 87.21 217.78 77.97 250.00 77.98 C 250.00 192.66 250.00 307.34 250.00 422.02 C 230.27 421.99 210.54 418.59 191.97 411.93 C 163.23 401.68 137.38 383.56 117.88 360.11 C 96.84 335.00 83.29 303.73 79.31 271.22 C 75.40 240.02 80.25 207.76 93.28 179.14 C 107.01 148.55 130.01 122.25 158.39 104.42 Z" />
</g>
</svg>
