<?xml version="1.0" encoding="UTF-8" ?>
<!DOCTYPE svg PUBLIC "-//W3C//DTD SVG 1.1//EN" "http://www.w3.org/Graphics/SVG/1.1/DTD/svg11.dtd">
<svg width="500pt" height="500pt" viewBox="0 0 500 500" version="1.1" xmlns="http://www.w3.org/2000/svg">
<g id="#d46e31ff">
<path fill="#d46e31" opacity="1.00" d=" M 242.91 0.00 L 250.01 0.00 C 249.98 166.67 250.01 333.33 250.00 500.00 L 243.26 500.00 C 198.14 498.65 153.41 485.09 115.40 460.68 C 73.91 434.25 40.54 395.27 20.93 350.14 C 7.84 320.33 0.81 287.94 0.00 255.40 L 0.00 245.49 C 0.98 185.52 24.39 126.17 64.96 81.94 C 85.45 59.26 110.22 40.47 137.53 26.73 C 170.13 10.20 206.41 1.22 242.91 0.00 Z" />
</g>
<g id="#2ab53aff">
<path fill="#2ab53a" opacity="1.00" d=" M 250.01 0.00 L 256.12 0.00 C 297.12 1.12 337.85 12.27 373.48 32.62 C 412.48 54.71 445.30 87.53 467.39 126.54 C 487.83 162.36 499.02 203.33 500.00 244.55 L 500.00 255.39 C 499.04 296.63 487.84 337.61 467.39 373.45 C 450.75 402.84 428.03 428.74 401.14 449.15 C 359.76 480.73 308.31 498.64 256.31 500.00 L 250.00 500.00 C 250.01 333.33 249.98 166.67 250.01 0.00 Z" />
</g>
</svg>
