<svg width="120" height="40" viewBox="0 0 120 40" fill="none" xmlns="http://www.w3.org/2000/svg">
<path d="M0 20C0 8.95431 8.95431 0 20 0H60V40H20C8.9543 40 0 31.0457 0 20V20Z" fill="#DFDFDF"/>
<path d="M120 20C120 31.0457 111.046 40 100 40L60 40L60 -5.24537e-06L100 -1.74846e-06C111.046 -7.8281e-07 120 8.95431 120 20V20Z" fill="#059E27"/>
<path d="M103.867 26.1745L94.429 16.7385L94.8591 16.3081C94.931 16.2361 94.9833 16.147 95.0111 16.0493C95.039 15.9515 95.0415 15.8482 95.0183 15.7492C97.5274 13.7172 100.132 12.5604 102.07 12.5529C100.075 11.3783 96.7786 12.1193 93.7573 14.3572L93.5847 14.1847C93.4719 14.0721 93.319 14.0089 93.1597 14.0089C93.0003 14.0089 92.8474 14.0721 92.7346 14.1847L92.3045 14.6145L91.3741 13.6847C91.2807 13.5919 91.1631 13.5516 91.033 13.5516C90.2968 13.5516 89.1549 14.8462 89.6826 15.3689L90.6162 16.3022L90.1848 16.7337C90.0727 16.8467 90.0098 16.9994 90.0098 17.1585C90.0098 17.3176 90.0727 17.4703 90.1848 17.5833L90.3578 17.7561C88.1194 20.7761 87.3781 24.0721 88.553 26.0657C88.5613 24.1281 89.7181 21.5244 91.7501 19.0164C91.849 19.0393 91.9522 19.0367 92.0499 19.0089C92.1476 18.9811 92.2367 18.929 92.3087 18.8574L92.7405 18.4262L102.182 27.8651C102.274 27.959 102.392 27.9998 102.522 27.9998C103.253 27.9998 104.39 26.7014 103.867 26.1745" fill="white"/>
<path d="M27 17.2H28.6C28.6 14.9304 26.396 13.8952 24.6 13.6568V12H23V13.6568C21.204 13.8952 19 14.9304 19 17.2C19 19.3648 21.1328 20.4904 23 20.744V24.72C21.8416 24.5192 20.6 23.9008 20.6 22.8H19C19 24.8712 20.94 26.0952 23 26.3488V28H24.6V26.344C26.396 26.1056 28.6 25.0696 28.6 22.8C28.6 20.5304 26.396 19.4952 24.6 19.2568V15.28C25.664 15.4712 27 16.0328 27 17.2V17.2ZM20.6 17.2C20.6 16.0328 21.936 15.4712 23 15.28V19.1192C21.9032 18.9168 20.6 18.3176 20.6 17.2ZM27 22.8C27 23.9672 25.664 24.5288 24.6 24.72V20.88C25.664 21.0712 27 21.6328 27 22.8V22.8Z" fill="#939393"/>
</svg>
