<?xml version="1.0" encoding="UTF-8" ?>
<!DOCTYPE svg PUBLIC "-//W3C//DTD SVG 1.1//EN" "http://www.w3.org/Graphics/SVG/1.1/DTD/svg11.dtd">
<svg width="500pt" height="500pt" viewBox="0 0 500 500" version="1.1" xmlns="http://www.w3.org/2000/svg">
<g id="#d46e31ff">
<path fill="#d46e31" opacity="1.00" d=" M 244.87 0.00 L 255.44 0.00 C 292.27 0.89 328.90 9.86 361.82 26.40 C 405.66 48.22 442.74 83.29 466.98 125.83 C 487.74 161.93 499.09 203.29 500.00 244.90 L 500.00 255.48 C 499.02 296.69 487.82 337.65 467.38 373.47 C 447.68 408.26 419.45 438.15 385.88 459.85 C 347.14 485.05 301.30 499.02 255.12 500.00 L 245.05 500.00 C 199.78 499.07 154.82 485.67 116.56 461.41 C 74.55 434.99 40.75 395.72 20.96 350.20 C 7.81 320.28 0.76 287.76 0.00 255.11 L 0.00 245.08 C 1.10 185.25 24.48 126.07 64.96 81.95 C 81.53 63.58 100.94 47.79 122.19 35.13 C 159.14 13.07 201.86 0.93 244.87 0.00 Z" />
</g>
</svg>
