<?xml version="1.0" encoding="UTF-8" ?>
<!DOCTYPE svg PUBLIC "-//W3C//DTD SVG 1.1//EN" "http://www.w3.org/Graphics/SVG/1.1/DTD/svg11.dtd">
<svg width="500pt" height="500pt" viewBox="0 0 500 500" version="1.1" xmlns="http://www.w3.org/2000/svg">
<g id="#d43131ff">
<path fill="#d43131" opacity="1.00" d=" M 244.54 0.00 L 255.35 0.00 C 296.86 0.96 338.12 12.29 374.13 32.99 C 416.67 57.23 451.74 94.30 473.57 138.12 C 490.13 171.06 499.11 207.70 500.00 244.54 L 500.00 255.42 C 499.03 296.64 487.84 337.61 467.40 373.45 C 448.03 407.64 420.44 437.11 387.62 458.71 C 348.61 484.56 302.22 498.93 255.46 500.00 L 244.65 500.00 C 199.28 498.98 154.24 485.46 115.96 461.03 C 73.08 433.90 38.86 393.35 19.37 346.49 C 7.28 317.72 0.79 286.67 0.00 255.48 L 0.00 244.64 C 0.68 217.81 5.52 191.08 14.60 165.81 C 32.72 114.73 68.06 70.02 113.53 40.53 C 152.29 15.15 198.24 1.06 244.54 0.00 Z" />
</g>
</svg>
