<?xml version="1.0" encoding="UTF-8" ?>
<!DOCTYPE svg PUBLIC "-//W3C//DTD SVG 1.1//EN" "http://www.w3.org/Graphics/SVG/1.1/DTD/svg11.dtd">
<svg width="500pt" height="500pt" viewBox="0 0 500 500" version="1.1" xmlns="http://www.w3.org/2000/svg">
<g id="#2ab53aff">
<path fill="#2ab53a" opacity="1.00" d=" M 244.81 0.00 L 255.07 0.00 C 296.43 0.90 337.55 12.11 373.49 32.63 C 412.48 54.71 445.29 87.51 467.37 126.50 C 487.74 162.18 498.91 202.95 500.00 244.00 L 500.00 255.10 C 499.09 296.44 487.89 337.54 467.38 373.48 C 447.43 408.69 418.75 438.89 384.63 460.66 C 346.18 485.35 300.84 499.01 255.18 500.00 L 244.94 500.00 C 198.77 499.03 152.92 485.08 114.18 459.90 C 73.24 433.49 40.34 394.81 20.92 350.12 C 7.89 320.46 0.89 288.25 0.00 255.88 L 0.00 244.27 C 0.59 224.74 3.21 205.25 8.23 186.36 C 18.92 145.61 40.11 107.66 69.29 77.27 C 86.22 59.50 105.82 44.28 127.20 32.23 C 162.95 11.99 203.76 0.92 244.81 0.00 Z" />
</g>
</svg>
