<?xml version="1.0" encoding="UTF-8" ?>
<!DOCTYPE svg PUBLIC "-//W3C//DTD SVG 1.1//EN" "http://www.w3.org/Graphics/SVG/1.1/DTD/svg11.dtd">
<svg width="280pt" height="278pt" viewBox="0 0 280 278" version="1.1" xmlns="http://www.w3.org/2000/svg">
<g id="#3165d4ff">
<path fill="#3165d4" opacity="1.00" d=" M 126.27 1.22 C 150.61 -1.08 175.59 2.82 197.80 13.14 C 219.38 22.99 238.35 38.54 252.22 57.79 C 279.11 94.09 286.04 144.03 270.23 186.32 C 255.53 227.75 219.69 260.89 177.26 272.36 C 152.98 279.15 126.83 279.09 102.57 272.22 C 80.97 266.18 60.95 254.68 44.73 239.19 C 25.31 220.74 11.38 196.55 5.38 170.43 C 0.16 147.98 0.60 124.20 6.81 102.00 C 17.25 63.50 45.39 30.30 81.61 13.62 C 95.62 6.90 110.85 2.92 126.27 1.22 M 69.18 57.13 C 61.15 64.17 54.19 73.33 52.63 84.15 C 51.37 91.84 53.30 99.58 56.35 106.62 C 71.86 143.21 91.05 178.08 109.90 213.02 C 113.56 219.26 116.85 225.73 121.17 231.55 C 145.60 200.20 170.29 169.05 194.36 137.43 C 204.21 124.58 214.18 111.81 223.51 98.58 C 225.24 95.53 228.22 92.82 228.15 89.07 C 228.27 77.27 222.49 65.99 214.27 57.77 C 208.92 52.69 202.68 47.65 195.08 46.85 C 187.34 46.60 182.42 53.61 177.17 58.21 C 161.07 74.94 147.40 93.79 133.69 112.47 C 128.49 102.05 122.82 91.88 117.26 81.64 C 111.12 71.07 105.00 60.37 97.02 51.04 C 94.77 48.40 91.59 46.22 87.96 46.50 C 80.36 46.81 74.33 52.05 69.18 57.13 Z" />
</g>
<g id="#ffffffff">
<path fill="#ffffff" opacity="1.00" d=" M 69.18 57.13 C 74.33 52.05 80.36 46.81 87.96 46.50 C 91.59 46.22 94.77 48.40 97.02 51.04 C 105.00 60.37 111.12 71.07 117.26 81.64 C 122.82 91.88 128.49 102.05 133.69 112.47 C 147.40 93.79 161.07 74.94 177.17 58.21 C 182.42 53.61 187.34 46.60 195.08 46.85 C 202.68 47.65 208.92 52.69 214.27 57.77 C 222.49 65.99 228.27 77.27 228.15 89.07 C 228.22 92.82 225.24 95.53 223.51 98.58 C 214.18 111.81 204.21 124.58 194.36 137.43 C 170.29 169.05 145.60 200.20 121.17 231.55 C 116.85 225.73 113.56 219.26 109.90 213.02 C 91.05 178.08 71.86 143.21 56.35 106.62 C 53.30 99.58 51.37 91.84 52.63 84.15 C 54.19 73.33 61.15 64.17 69.18 57.13 Z" />
</g>
</svg>
