<?xml version="1.0" encoding="UTF-8" ?>
<!DOCTYPE svg PUBLIC "-//W3C//DTD SVG 1.1//EN" "http://www.w3.org/Graphics/SVG/1.1/DTD/svg11.dtd">
<svg width="1000pt" height="1000pt" viewBox="0 0 1000 1000" version="1.1" xmlns="http://www.w3.org/2000/svg">
<g id="#e96d2fff">
<path fill="#e96d2f" opacity="1.00" d=" M 374.79 201.80 C 404.94 175.88 443.81 161.52 483.09 157.45 C 474.01 186.57 474.33 217.75 479.03 247.63 C 474.14 241.68 471.15 233.10 463.18 230.52 C 447.68 223.89 429.36 238.93 430.00 255.02 C 430.58 260.58 433.96 265.32 438.19 268.78 C 447.60 276.99 458.47 283.89 465.70 294.29 C 469.97 300.62 472.14 308.64 470.43 316.18 C 466.70 325.57 455.45 329.59 446.01 328.43 C 433.22 327.70 422.21 320.28 412.59 312.43 C 407.91 308.44 403.03 304.67 398.42 300.60 C 381.80 281.80 373.95 256.71 372.23 232.01 C 371.77 223.04 371.87 214.04 372.39 205.07 C 372.42 203.60 373.91 202.79 374.79 201.80 Z" />
</g>
<g id="#84837f8b">
<path fill="#84837f" opacity="0.55" d=" M 485.57 158.42 C 498.81 157.70 512.14 158.06 525.27 159.87 C 521.28 159.66 517.24 160.24 513.31 159.37 C 504.36 157.65 495.22 158.83 486.18 158.44 L 485.57 158.42 Z" />
</g>
<g id="#453c77ff">
<path fill="#453c77" opacity="1.00" d=" M 486.18 158.44 C 495.22 158.83 504.36 157.65 513.31 159.37 C 517.24 160.24 521.28 159.66 525.27 159.87 C 558.92 163.80 592.27 176.13 618.16 198.40 C 623.10 202.48 627.48 207.18 631.93 211.78 C 611.81 215.94 591.27 221.96 575.04 235.11 C 567.61 240.73 561.80 248.26 557.35 256.39 C 558.61 251.18 557.83 245.51 554.82 241.04 C 547.81 229.98 529.92 226.48 520.55 236.46 C 513.44 244.08 513.81 255.39 515.06 265.04 C 516.76 276.86 519.64 289.77 513.66 300.90 C 510.85 300.93 508.00 301.16 505.23 300.63 C 501.62 299.28 498.81 296.41 496.72 293.25 C 491.91 286.22 489.77 277.85 487.44 269.77 C 477.52 233.64 475.69 194.65 486.18 158.44 Z" />
</g>
<g id="#f19e2aff">
<path fill="#f19e2a" opacity="1.00" d=" M 343.21 234.32 C 350.73 223.80 359.02 213.82 368.05 204.57 C 366.10 231.99 369.49 260.59 382.88 284.99 C 386.62 291.91 391.31 298.26 396.36 304.27 C 388.65 305.34 380.19 304.78 373.38 309.16 C 360.32 318.24 357.68 340.05 369.93 350.86 C 375.94 356.19 384.50 355.96 392.03 356.32 C 410.39 357.10 429.80 355.25 446.87 363.47 C 461.10 369.24 469.80 387.53 462.82 401.76 C 454.93 414.99 442.17 424.91 428.11 430.90 C 397.55 443.67 360.47 439.76 333.43 420.54 C 323.28 397.98 316.83 373.75 314.37 349.14 C 313.75 339.46 312.90 329.74 313.85 320.06 C 315.21 289.47 325.39 259.26 343.21 234.32 Z" />
</g>
<g id="#2499c3ff">
<path fill="#2499c3" opacity="1.00" d=" M 578.03 237.05 C 593.79 224.26 613.86 218.74 633.37 214.65 C 645.84 227.34 655.09 242.94 661.46 259.49 C 668.85 278.81 672.49 299.41 673.89 319.99 C 675.37 338.51 675.02 357.13 673.73 375.65 C 666.35 361.17 656.48 347.53 642.99 338.18 C 631.98 330.27 618.28 325.92 604.69 326.99 C 607.68 324.43 610.72 321.65 612.13 317.87 C 615.59 309.11 612.96 298.30 605.82 292.15 C 601.67 288.51 595.79 286.87 590.39 288.11 C 575.12 295.62 567.61 312.69 552.58 320.55 C 549.38 322.27 545.45 324.02 541.94 322.10 C 537.15 320.21 535.39 314.71 535.35 309.98 C 535.59 301.96 538.39 294.24 542.34 287.33 C 551.90 269.14 561.88 250.32 578.03 237.05 Z" />
</g>
<g id="#4ab9c0ff">
<path fill="#4ab9c0" opacity="1.00" d=" M 590.45 332.59 C 614.65 325.26 642.35 335.79 657.01 356.05 C 661.95 362.71 668.12 368.92 670.42 377.12 C 671.72 383.99 671.23 391.03 671.60 397.99 C 671.64 416.67 672.92 435.32 672.85 454.01 C 674.12 473.90 673.40 493.85 674.18 513.76 C 645.71 513.65 617.23 513.64 588.75 513.78 C 591.52 489.81 592.61 465.43 588.64 441.52 C 585.36 420.51 578.08 399.86 565.68 382.45 C 560.36 375.41 552.55 369.56 550.64 360.49 C 549.18 352.61 554.56 345.19 561.13 341.43 C 570.17 336.39 580.71 335.62 590.45 332.59 Z" />
</g>
<g id="#f7c231ff">
<path fill="#f7c231" opacity="1.00" d=" M 509.41 388.64 C 514.88 387.47 521.52 386.96 525.93 391.11 C 531.55 396.48 532.97 404.57 534.55 411.85 C 540.95 446.18 531.92 481.17 518.78 512.82 C 495.15 514.76 471.18 514.21 447.88 509.63 C 428.75 505.86 410.32 498.61 393.70 488.42 C 368.48 472.78 347.83 450.36 332.67 424.97 C 342.17 429.41 351.47 434.38 361.47 437.65 C 376.19 442.52 392.15 443.59 407.37 440.59 C 419.20 438.39 430.65 434.37 441.49 429.19 C 442.82 434.51 443.26 440.18 445.97 445.06 C 452.32 455.63 467.03 459.46 477.99 454.17 C 481.90 452.17 485.73 449.00 486.68 444.50 C 489.50 431.38 487.95 417.63 491.69 404.66 C 493.68 396.34 501.49 390.73 509.41 388.64 Z" />
<path fill="#f7c231" opacity="1.00" d=" M 447.19 868.38 L 447.84 868.41 C 452.32 868.65 456.80 868.52 461.28 868.62 C 461.61 868.64 462.27 868.67 462.60 868.69 C 462.09 870.35 461.60 872.06 460.77 873.62 L 460.50 873.38 C 456.67 869.04 450.56 871.01 445.63 871.60 C 445.73 871.12 445.94 870.14 446.04 869.66 C 446.24 869.44 446.62 869.01 446.81 868.80 C 446.91 868.69 447.10 868.48 447.19 868.38 Z" />
</g>
<g id="#ffffffff">
<path fill="#ffffff" opacity="1.00" d=" M 274.81 599.78 C 288.58 591.06 304.83 586.83 321.00 585.82 C 339.91 584.73 358.88 588.06 376.74 594.18 C 374.27 599.01 371.86 603.88 369.34 608.69 C 369.06 608.50 368.49 608.13 368.20 607.94 C 354.14 603.96 339.70 600.78 325.02 600.79 C 310.32 601.12 294.99 604.83 283.60 614.59 C 271.66 624.85 265.56 640.55 264.64 656.02 C 263.79 670.65 267.10 685.70 274.95 698.17 C 282.82 709.36 295.68 716.18 308.94 718.68 C 325.99 721.94 343.63 720.18 360.49 716.70 C 360.47 701.72 360.36 686.72 360.54 671.74 C 348.34 671.67 336.14 671.66 323.94 671.69 C 324.29 666.62 324.19 661.53 324.19 656.46 C 342.51 656.62 360.83 656.40 379.15 656.57 C 379.14 680.20 379.18 703.84 379.13 727.48 C 348.87 734.71 316.17 739.08 286.14 728.51 C 271.92 723.16 260.31 711.92 253.52 698.43 C 244.33 680.31 242.49 658.77 247.66 639.19 C 251.78 623.47 261.06 608.75 274.81 599.78 Z" />
<path fill="#ffffff" opacity="1.00" d=" M 152.07 587.20 C 157.31 587.20 162.54 587.21 167.78 587.19 C 189.31 635.53 209.76 684.34 231.48 732.59 C 224.89 732.52 218.31 732.55 211.72 732.57 C 205.44 717.15 198.52 702.00 192.07 686.65 C 170.37 686.74 148.67 686.65 126.98 686.70 C 120.47 701.98 113.76 717.18 107.57 732.60 C 101.10 732.51 94.63 732.54 88.16 732.58 C 110.07 684.40 130.68 635.62 152.07 587.20 M 156.16 617.43 C 148.96 635.57 141.34 653.54 133.44 671.38 C 151.00 671.20 168.58 671.35 186.15 671.29 C 177.61 649.78 167.12 629.00 160.64 606.71 C 158.74 610.10 157.63 613.85 156.16 617.43 Z" />
<path fill="#ffffff" opacity="1.00" d=" M 469.76 587.19 C 475.05 587.21 480.35 587.21 485.65 587.19 C 506.90 635.62 527.50 684.34 549.23 732.55 C 542.69 732.64 536.14 732.66 529.60 732.68 C 522.11 716.89 517.36 699.68 507.23 685.23 C 486.50 687.77 465.60 686.30 444.79 686.70 C 438.07 701.95 431.59 717.31 425.11 732.67 C 418.71 732.64 412.31 732.70 405.91 732.55 C 427.75 684.34 448.49 635.64 469.76 587.19 M 477.03 606.38 C 470.61 628.83 460.18 649.78 451.34 671.31 C 468.89 671.29 486.44 671.26 503.99 671.35 C 499.30 660.31 494.56 649.29 489.97 638.21 C 485.40 627.70 481.65 616.84 477.03 606.38 Z" />
<path fill="#ffffff" opacity="1.00" d=" M 579.38 587.52 C 588.40 587.32 597.44 587.49 606.46 587.23 C 624.93 626.82 640.82 667.53 658.52 707.45 C 660.14 705.83 660.78 703.57 661.74 701.55 C 678.66 663.61 694.12 625.04 711.52 587.31 C 720.70 587.38 729.89 587.46 739.07 587.53 C 739.13 635.90 738.99 684.28 739.19 732.66 C 732.73 732.65 726.28 732.64 719.82 732.66 C 720.03 690.63 719.73 648.59 720.65 606.57 C 718.72 606.74 718.64 608.75 717.92 610.05 C 700.94 651.13 682.99 691.81 665.54 732.69 C 660.53 732.63 655.52 732.63 650.51 732.69 C 632.90 692.64 617.12 651.79 598.69 612.10 C 597.73 610.37 597.41 607.75 594.95 607.66 C 598.25 649.27 595.80 691.02 596.73 732.69 C 590.68 732.69 584.64 732.50 578.59 732.56 C 580.22 684.23 578.71 635.86 579.38 587.52 Z" />
<path fill="#ffffff" opacity="1.00" d=" M 832.44 587.17 C 837.76 587.22 843.08 587.22 848.40 587.17 C 869.65 635.62 890.15 684.41 912.08 732.55 C 905.48 732.63 898.89 732.60 892.30 732.78 C 885.89 717.38 879.07 702.16 872.64 686.78 C 850.91 686.48 829.17 686.76 807.44 686.66 C 800.90 701.99 794.25 717.27 787.86 732.66 C 781.43 732.65 775.00 732.68 768.58 732.56 C 790.45 684.36 811.26 635.68 832.44 587.17 M 838.86 609.67 C 832.09 630.83 822.69 651.00 813.84 671.34 C 831.51 671.26 849.19 671.31 866.86 671.30 C 857.50 649.95 848.15 628.55 840.55 606.49 C 839.78 607.43 839.17 608.48 838.86 609.67 Z" />
<path fill="#ffffff" opacity="1.00" d=" M 391.42 825.63 C 399.77 807.87 406.52 789.37 415.54 771.93 C 427.62 788.60 433.49 808.56 441.56 827.26 C 438.72 826.52 435.77 825.44 433.99 822.98 C 431.01 819.00 429.58 814.15 427.72 809.60 C 419.86 809.68 411.95 809.35 404.13 810.23 C 402.35 815.46 400.18 820.53 398.28 825.72 C 395.99 825.64 393.70 825.60 391.42 825.63 M 407.15 804.37 C 413.31 804.41 419.46 804.38 425.62 804.40 C 422.55 797.18 419.65 789.90 416.57 782.69 C 412.97 789.70 410.43 797.20 407.15 804.37 Z" />
<path fill="#ffffff" opacity="1.00" d=" M 367.52 777.26 C 369.36 775.41 372.42 775.09 374.81 774.02 C 369.33 791.61 365.52 809.77 358.23 826.76 C 356.64 825.93 355.04 825.13 353.43 824.36 C 347.50 811.15 343.94 797.05 338.87 783.51 C 333.95 796.91 331.24 811.15 325.08 824.12 C 324.04 825.55 322.06 825.90 320.58 826.81 C 312.52 810.53 309.97 792.31 303.78 775.35 C 306.15 775.35 308.51 775.33 310.88 775.28 C 314.82 788.62 318.60 802.01 321.71 815.57 L 322.78 814.35 C 326.72 801.15 331.14 788.11 335.58 775.07 C 337.88 775.23 340.19 775.36 342.50 775.48 C 346.90 788.14 351.60 800.73 355.07 813.69 C 355.54 813.79 356.48 814.00 356.95 814.10 C 360.06 801.72 363.01 789.23 367.52 777.26 Z" />
<path fill="#ffffff" opacity="1.00" d=" M 471.10 775.34 C 473.24 775.34 475.39 775.29 477.54 775.24 C 477.26 790.26 477.56 805.28 477.28 820.30 C 486.29 820.24 495.32 820.27 504.33 820.82 C 501.09 824.72 495.98 826.24 491.06 826.16 C 484.40 825.95 477.74 824.52 471.09 825.53 C 471.21 808.80 471.19 792.06 471.10 775.34 Z" />
<path fill="#ffffff" opacity="1.00" d=" M 531.92 775.42 C 534.06 775.36 536.21 775.32 538.37 775.25 C 538.35 790.27 538.36 805.29 538.27 820.30 C 546.55 820.27 554.84 820.33 563.13 820.41 C 563.10 822.10 563.10 823.82 563.08 825.54 C 552.76 825.51 542.45 825.55 532.13 825.65 C 531.78 808.91 532.07 792.16 531.92 775.42 Z" />
<path fill="#ffffff" opacity="1.00" d=" M 595.57 775.36 C 607.10 775.38 618.71 774.75 630.16 776.43 C 621.85 782.14 611.48 780.25 602.05 780.65 C 602.26 785.89 602.15 791.15 602.15 796.40 C 609.83 796.38 617.51 796.46 625.20 796.52 C 625.25 798.20 625.31 799.90 625.37 801.60 C 617.62 801.62 609.89 801.59 602.15 801.62 C 602.21 807.82 602.12 814.03 602.21 820.23 C 611.50 820.30 620.82 820.17 630.05 821.44 C 619.80 828.07 607.24 824.94 595.82 825.59 C 595.44 808.84 595.68 792.10 595.57 775.36 Z" />
<path fill="#ffffff" opacity="1.00" d=" M 652.27 776.40 C 667.60 774.41 683.09 775.62 698.50 775.34 C 698.26 777.08 698.01 778.82 697.77 780.58 C 691.77 780.47 685.77 780.52 679.78 780.54 C 680.25 795.57 680.07 810.62 679.88 825.65 C 677.68 825.61 675.49 825.61 673.31 825.63 C 673.41 810.67 673.33 795.71 673.35 780.76 C 666.15 780.81 658.30 781.01 652.27 776.40 Z" />
<path fill="#ffffff" opacity="1.00" d=" M 426.68 853.17 C 427.52 853.28 428.37 853.40 429.22 853.54 C 429.35 858.97 429.61 864.40 429.65 869.83 C 430.39 869.75 431.87 869.60 432.62 869.52 L 432.47 868.69 C 433.63 868.59 434.81 868.48 435.98 868.37 C 437.03 866.42 438.34 864.62 440.01 863.16 C 441.76 864.52 443.11 866.30 444.16 868.26 C 444.82 868.39 446.15 868.66 446.81 868.80 C 446.62 869.01 446.24 869.44 446.04 869.66 C 445.26 869.66 443.70 869.66 442.92 869.66 C 442.24 868.47 441.55 867.31 440.89 866.14 C 440.47 866.24 439.63 866.43 439.22 866.53 C 437.89 869.17 435.33 870.53 432.46 870.77 C 431.92 872.66 431.47 874.58 431.10 876.54 C 430.31 876.47 429.53 876.42 428.75 876.38 C 428.63 871.17 428.40 865.95 428.02 860.76 C 427.83 862.80 427.46 866.87 427.27 868.91 L 426.63 868.13 C 426.58 870.45 426.50 872.78 426.35 875.12 C 425.93 875.18 425.10 875.32 424.69 875.39 C 424.19 873.82 423.70 872.27 423.22 870.72 C 422.71 870.56 421.69 870.25 421.17 870.09 C 420.94 870.17 420.47 870.31 420.23 870.38 L 420.08 870.67 C 414.46 870.32 408.83 870.46 403.21 870.53 C 403.50 869.15 403.82 867.79 404.16 866.44 L 404.12 868.71 C 408.99 868.72 413.86 868.58 418.74 868.71 C 419.49 868.81 420.25 868.96 421.02 869.16 C 422.56 869.35 424.11 869.52 425.66 869.74 C 425.63 868.23 425.60 866.73 425.58 865.24 L 426.40 865.84 C 426.31 861.61 426.51 857.39 426.68 853.17 Z" />
<path fill="#ffffff" opacity="1.00" d=" M 452.00 858.11 C 453.91 858.20 454.78 859.87 455.77 861.26 C 456.94 862.79 458.17 864.29 459.44 865.75 L 459.60 866.17 C 460.02 866.79 460.86 868.01 461.28 868.62 C 456.80 868.52 452.32 868.65 447.84 868.41 C 448.22 867.27 448.61 866.14 449.03 865.03 C 450.19 862.80 451.21 860.49 452.00 858.11 Z" />
<path fill="#ffffff" opacity="1.00" d=" M 445.63 871.60 C 450.56 871.01 456.67 869.04 460.50 873.38 L 460.81 873.67 C 460.40 874.27 459.57 875.45 459.16 876.04 C 458.23 878.08 457.27 880.12 456.31 882.16 C 455.30 884.14 454.33 886.15 453.39 888.18 C 452.44 890.02 451.53 891.89 450.65 893.78 C 449.99 895.13 449.32 896.48 448.63 897.83 C 447.81 899.55 446.98 901.27 446.21 903.03 C 445.01 905.33 443.93 907.71 442.64 909.97 C 442.58 910.23 442.47 910.76 442.42 911.03 C 441.49 912.57 440.68 914.19 439.99 915.87 L 439.89 915.63 C 437.77 910.35 435.30 905.22 433.01 900.01 C 433.73 898.35 434.45 896.72 435.18 895.08 C 436.55 892.10 437.91 889.12 439.34 886.18 C 440.26 884.12 441.18 882.07 442.15 880.05 C 443.37 877.26 444.97 874.60 445.63 871.60 Z" />
<path fill="#ffffff" opacity="1.00" d=" M 464.93 886.49 C 468.14 884.57 471.90 884.48 475.53 884.59 L 475.53 885.11 C 477.09 885.33 478.69 885.60 480.04 886.49 C 480.35 886.51 480.97 886.54 481.28 886.55 L 481.33 887.63 L 482.44 887.53 L 482.49 888.56 L 483.20 888.50 C 483.46 888.83 483.97 889.51 484.23 889.84 C 484.73 890.60 485.24 891.37 485.75 892.15 C 486.28 893.58 486.57 895.09 486.83 896.62 L 487.36 896.34 C 487.38 898.12 487.42 899.92 487.49 901.72 L 486.48 901.43 L 486.63 902.39 C 480.08 902.29 473.53 902.31 466.98 902.38 C 467.25 903.83 467.55 905.30 467.94 906.75 C 468.28 907.02 468.98 907.57 469.32 907.84 C 471.80 909.12 474.91 909.06 477.17 907.34 C 477.46 907.02 478.04 906.39 478.33 906.08 L 478.39 905.47 C 481.23 905.52 484.07 905.51 486.92 905.54 C 486.88 908.10 485.29 910.11 483.65 911.92 L 483.48 912.18 C 483.10 912.50 482.34 913.15 481.95 913.47 C 481.61 913.44 480.92 913.37 480.57 913.34 L 480.59 914.43 C 479.79 914.48 478.19 914.59 477.39 914.65 L 477.67 915.48 C 474.26 915.68 470.84 915.68 467.44 915.40 L 467.45 914.32 C 467.06 914.40 466.30 914.56 465.91 914.64 C 463.48 913.15 461.17 911.45 459.44 909.16 C 459.38 908.90 459.27 908.39 459.22 908.13 C 457.07 904.38 457.40 899.99 457.66 895.85 C 458.24 894.55 458.82 893.25 459.48 892.00 C 459.49 891.68 459.52 891.05 459.53 890.73 L 460.59 890.63 L 460.51 889.71 C 461.01 889.35 462.02 888.63 462.53 888.27 L 462.54 887.51 L 463.64 887.61 L 463.70 886.53 C 464.01 886.52 464.62 886.50 464.93 886.49 M 469.97 891.78 C 468.68 893.16 467.46 894.64 466.94 896.51 C 470.71 896.66 474.48 896.65 478.26 896.53 C 477.64 895.12 476.95 893.74 476.20 892.42 C 475.96 892.37 475.47 892.27 475.22 892.22 C 473.58 891.26 471.74 891.50 469.97 891.78 Z" />
<path fill="#ffffff" opacity="1.00" d=" M 493.44 886.42 C 496.55 886.40 499.66 886.42 502.78 886.37 L 502.51 887.37 L 503.19 887.55 C 503.31 888.61 503.55 890.72 503.67 891.78 C 504.12 889.62 505.33 887.85 506.79 886.28 C 507.20 886.38 508.00 886.60 508.40 886.70 L 508.49 885.67 C 509.26 885.65 510.80 885.60 511.57 885.58 L 511.50 886.65 L 512.72 886.27 C 512.65 888.95 512.65 891.64 512.63 894.34 C 509.88 894.08 506.99 893.92 504.59 895.51 C 503.97 896.93 503.23 898.36 503.35 899.98 C 503.30 905.24 503.35 910.50 503.36 915.77 C 500.05 915.82 496.75 915.82 493.44 915.80 C 493.46 906.00 493.47 896.21 493.44 886.42 Z" />
<path fill="#ffffff" opacity="1.00" d=" M 559.96 886.86 C 561.17 886.62 562.39 886.40 563.63 886.22 L 563.40 885.60 C 566.14 885.57 568.89 885.56 571.65 885.58 L 571.41 886.22 C 572.63 886.39 573.85 886.58 575.08 886.80 C 576.66 887.99 578.22 889.23 579.65 890.61 L 579.27 891.61 L 580.41 891.50 C 580.48 892.46 580.62 894.38 580.69 895.34 C 578.05 895.33 575.42 895.32 572.79 895.38 C 572.54 895.06 572.05 894.42 571.80 894.11 C 570.09 891.19 565.47 891.71 563.26 893.79 C 563.67 894.42 564.48 895.70 564.89 896.34 C 566.10 896.46 567.32 896.58 568.55 896.71 L 568.38 897.28 C 571.76 897.42 575.00 898.41 578.16 899.55 C 582.23 901.76 580.88 906.83 580.59 910.59 L 579.40 910.42 L 579.65 911.55 L 578.99 911.75 C 577.70 912.71 576.38 913.64 575.08 914.61 C 574.70 914.52 573.95 914.34 573.57 914.25 L 573.52 915.35 C 569.80 915.69 566.07 915.68 562.35 915.44 L 562.61 914.81 C 561.39 914.59 560.19 914.27 559.04 913.87 C 557.58 912.62 556.22 911.29 554.81 910.00 C 554.51 908.56 554.31 907.11 554.18 905.66 C 556.95 905.68 559.73 905.70 562.51 905.66 L 562.47 906.26 C 562.78 906.47 563.42 906.88 563.74 907.08 C 563.98 907.43 564.47 908.12 564.72 908.46 C 565.27 908.73 566.38 909.27 566.94 909.54 C 568.50 909.23 570.07 908.86 571.62 908.47 C 571.66 907.49 571.71 906.53 571.76 905.58 C 569.76 904.71 567.62 904.34 565.47 904.22 L 565.62 903.74 C 564.08 903.52 562.56 903.30 561.07 902.96 C 559.93 902.37 558.78 901.81 557.65 901.26 L 557.55 900.45 L 556.83 900.45 C 556.47 900.08 555.76 899.33 555.40 898.96 C 555.48 898.62 555.63 897.94 555.71 897.60 L 554.59 897.50 C 554.57 895.81 554.56 894.13 554.56 892.46 L 555.69 892.41 C 555.59 892.02 555.39 891.23 555.29 890.83 C 556.74 889.38 558.34 888.11 559.96 886.86 Z" />
<path fill="#ffffff" opacity="1.00" d=" M 518.64 886.46 C 521.90 886.38 525.16 886.39 528.43 886.46 C 528.42 892.77 528.33 899.09 528.49 905.41 C 530.49 908.43 535.58 908.72 537.39 905.33 C 538.00 899.08 537.51 892.76 537.63 886.49 C 540.88 886.38 544.14 886.39 547.41 886.44 C 547.40 895.83 547.33 905.22 547.44 914.61 L 546.33 914.25 L 546.62 915.31 C 544.18 915.24 541.75 915.23 539.33 915.31 L 539.50 914.28 L 538.12 914.73 C 538.23 913.87 538.46 912.13 538.57 911.27 C 538.04 911.31 536.97 911.39 536.44 911.43 L 536.61 912.52 L 535.54 912.53 L 535.53 913.28 C 535.15 913.63 534.40 914.33 534.03 914.68 C 533.67 914.59 532.95 914.41 532.60 914.32 L 532.60 915.52 C 530.23 915.55 527.87 915.50 525.52 915.39 L 525.44 914.23 C 525.07 914.31 524.35 914.49 523.99 914.57 C 522.86 913.49 521.72 912.44 520.63 911.34 C 520.06 910.15 519.48 908.99 518.88 907.85 C 518.41 900.73 518.80 893.58 518.64 886.46 Z" />
</g>
<g id="#ffb400ff">
<path fill="#ffb400" opacity="1.00" d=" M 404.12 868.71 C 407.08 864.62 410.07 860.46 413.86 857.08 C 415.31 861.02 417.19 864.79 418.74 868.71 C 413.86 868.58 408.99 868.72 404.12 868.71 Z" />
<path fill="#ffb400" opacity="1.00" d=" M 403.21 870.53 C 408.83 870.46 414.46 870.32 420.08 870.67 C 423.42 879.97 428.09 888.78 431.99 897.88 C 432.25 898.41 432.76 899.48 433.01 900.01 C 435.30 905.22 437.77 910.35 439.89 915.63 C 435.21 915.74 430.53 915.67 425.85 915.70 C 424.29 912.44 422.66 909.21 421.08 905.98 C 419.73 903.30 418.37 900.63 417.14 897.90 C 416.28 896.27 415.42 894.64 414.52 893.05 C 414.46 892.78 414.35 892.24 414.30 891.97 C 413.17 889.99 412.14 887.98 411.16 885.94 C 410.14 883.95 409.16 881.94 408.18 879.94 C 406.56 876.75 405.21 873.40 403.05 870.53 L 403.21 870.53 Z" />
</g>
</svg>
