<svg xmlns="http://www.w3.org/2000/svg" width="3840" height="3000"><path d="M2024,1597L1469,1826L1991,1869Z" fill="#679dd6" stroke="#679dd6" stroke-width="1.51"/><path d="M2024,1597L1506,1393L1469,1826Z" fill="#6399d2" stroke="#6399d2" stroke-width="1.51"/><path d="M1469,1826L1816,2275L1991,1869Z" fill="#679dd4" stroke="#679dd4" stroke-width="1.51"/><path d="M1817,1023L1602,1043L1506,1393Z" fill="#5a90cb" stroke="#5a90cb" stroke-width="1.51"/><path d="M2351,2056L2264,1428L2024,1597Z" fill="#6aa0d8" stroke="#6aa0d8" stroke-width="1.51"/><path d="M2351,2056L2024,1597L1991,1869Z" fill="#6ba1d7" stroke="#6ba1d7" stroke-width="1.51"/><path d="M1817,1023L1506,1393L2024,1597Z" fill="#6097d1" stroke="#6097d1" stroke-width="1.51"/><path d="M2264,1428L1817,1023L2024,1597Z" fill="#649bd4" stroke="#649bd4" stroke-width="1.51"/><path d="M1469,1826L1235,2280L1816,2275Z" fill="#6499d1" stroke="#6499d1" stroke-width="1.51"/><path d="M1044,1364L1146,2074L1469,1826Z" fill="#5b91cb" stroke="#5b91cb" stroke-width="1.51"/><path d="M1044,1364L1469,1826L1506,1393Z" fill="#5c92cd" stroke="#5c92cd" stroke-width="1.51"/><path d="M1816,2275L2351,2056L1991,1869Z" fill="#6ca1d8" stroke="#6ca1d8" stroke-width="1.51"/><path d="M1146,2074L1235,2280L1469,1826Z" fill="#5f94cc" stroke="#5f94cc" stroke-width="1.51"/><path d="M1602,1043L1044,1364L1506,1393Z" fill="#578ec8" stroke="#578ec8" stroke-width="1.51"/><path d="M1235,2280L1460,2491L1816,2275Z" fill="#669ad1" stroke="#669ad1" stroke-width="1.51"/><path d="M1816,2275L2435,2319L2351,2056Z" fill="#6ea2d9" stroke="#6ea2d9" stroke-width="1.51"/><path d="M2757,1406L2348,957L2264,1428Z" fill="#659ad2" stroke="#659ad2" stroke-width="1.51"/><path d="M2073,2685L2435,2319L1816,2275Z" fill="#6fa3d8" stroke="#6fa3d8" stroke-width="1.51"/><path d="M2264,1428L2348,957L1817,1023Z" fill="#6096cf" stroke="#6096cf" stroke-width="1.51"/><path d="M1817,1023L1432,771L1602,1043Z" fill="#558bc6" stroke="#558bc6" stroke-width="1.51"/><path d="M2757,1406L2264,1428L2351,2056Z" fill="#6ba0d8" stroke="#6ba0d8" stroke-width="1.51"/><path d="M1602,1043L954,968L1044,1364Z" fill="#5187c3" stroke="#5187c3" stroke-width="1.51"/><path d="M1921,648L1432,771L1817,1023Z" fill="#548ac5" stroke="#548ac5" stroke-width="1.51"/><path d="M1044,1364L687,1819L1146,2074Z" fill="#568cc7" stroke="#568cc7" stroke-width="1.51"/><path d="M565,2492L729,2641L1235,2280Z" fill="#5b8dc6" stroke="#5b8dc6" stroke-width="1.51"/><path d="M687,1019L727,1512L1044,1364Z" fill="#4d84c0" stroke="#4d84c0" stroke-width="1.51"/><path d="M1460,2491L2073,2685L1816,2275Z" fill="#6ca0d6" stroke="#6ca0d6" stroke-width="1.51"/><path d="M2348,957L2231,773L1817,1023Z" fill="#5b91cb" stroke="#5b91cb" stroke-width="1.51"/><path d="M2905,2056L2757,1406L2351,2056Z" fill="#6fa2d9" stroke="#6fa2d9" stroke-width="1.51"/><path d="M2348,957L2636,924L2231,773Z" fill="#5c91cb" stroke="#5c91cb" stroke-width="1.51"/><path d="M727,1512L687,1819L1044,1364Z" fill="#5289c4" stroke="#5289c4" stroke-width="1.51"/><path d="M1027,2886L1406,2850L1460,2491Z" fill="#6a9acf" stroke="#6a9acf" stroke-width="1.51"/><path d="M2231,773L1921,648L1817,1023Z" fill="#588ec9" stroke="#588ec9" stroke-width="1.51"/><path d="M1432,771L954,968L1602,1043Z" fill="#4f85c1" stroke="#4f85c1" stroke-width="1.51"/><path d="M2207,100L1978,163L1921,648Z" fill="#4d82bd" stroke="#4d82bd" stroke-width="1.51"/><path d="M2757,1406L2636,924L2348,957Z" fill="#6297cf" stroke="#6297cf" stroke-width="1.51"/><path d="M1460,2491L1406,2850L2073,2685Z" fill="#6c9ed4" stroke="#6c9ed4" stroke-width="1.51"/><path d="M1027,2886L1460,2491L1235,2280Z" fill="#6395cd" stroke="#6395cd" stroke-width="1.51"/><path d="M2435,2319L2905,2056L2351,2056Z" fill="#70a3d8" stroke="#70a3d8" stroke-width="1.51"/><path d="M2913,2395L2905,2056L2435,2319Z" fill="#73a5d9" stroke="#73a5d9" stroke-width="1.51"/><path d="M954,968L687,1019L1044,1364Z" fill="#4a81bd" stroke="#4a81bd" stroke-width="1.51"/><path d="M1432,771L976,738L954,968Z" fill="#487fbb" stroke="#487fbb" stroke-width="1.51"/><path d="M1232,153L976,738L1432,771Z" fill="#447ab8" stroke="#447ab8" stroke-width="1.51"/><path d="M976,738L687,1019L954,968Z" fill="#467bb9" stroke="#467bb9" stroke-width="1.51"/><path d="M727,1512L306,1789L687,1819Z" fill="#4f84c0" stroke="#4f84c0" stroke-width="1.51"/><path d="M2073,2685L2226,2886L2435,2319Z" fill="#72a5d9" stroke="#72a5d9" stroke-width="1.51"/><path d="M1798,3144L2226,2886L2073,2685Z" fill="#80acdd" stroke="#80acdd" stroke-width="1.51"/><path d="M2905,2678L2913,2395L2435,2319Z" fill="#74a6d9" stroke="#74a6d9" stroke-width="1.51"/><path d="M565,2492L1235,2280L1146,2074Z" fill="#5c8fc8" stroke="#5c8fc8" stroke-width="1.51"/><path d="M729,2641L1027,2886L1235,2280Z" fill="#5f91c8" stroke="#5f91c8" stroke-width="1.51"/><path d="M1406,2850L1798,3144L2073,2685Z" fill="#7ca9d9" stroke="#7ca9d9" stroke-width="1.51"/><path d="M306,1789L565,2492L687,1819Z" fill="#5184be" stroke="#5184be" stroke-width="1.51"/><path d="M687,1819L565,2492L1146,2074Z" fill="#578bc4" stroke="#578bc4" stroke-width="1.51"/><path d="M205,1548L306,1789L727,1512Z" fill="#4c7eb6" stroke="#4c7eb6" stroke-width="1.51"/><path d="M1340,3343L1798,3144L1406,2850Z" fill="#86abd9" stroke="#86abd9" stroke-width="1.51"/><path d="M2636,924L2843,683L2231,773Z" fill="#5c90c9" stroke="#5c90c9" stroke-width="1.51"/><path d="M3235,987L2843,683L2636,924Z" fill="#6093cb" stroke="#6093cb" stroke-width="1.51"/><path d="M3235,987L2636,924L2757,1406Z" fill="#6499d0" stroke="#6499d0" stroke-width="1.51"/><path d="M687,1019L307,1225L727,1512Z" fill="#477ebb" stroke="#477ebb" stroke-width="1.51"/><path d="M274,576L307,1225L687,1019Z" fill="#3f71ab" stroke="#3f71ab" stroke-width="1.51"/><path d="M2401,3139L2905,2678L2226,2886Z" fill="#83aedd" stroke="#83aedd" stroke-width="1.51"/><path d="M2226,2886L2905,2678L2435,2319Z" fill="#74a6d9" stroke="#74a6d9" stroke-width="1.51"/><path d="M2905,2056L3265,1823L2757,1406Z" fill="#70a3d9" stroke="#70a3d9" stroke-width="1.51"/><path d="M3319,2421L3265,1823L2905,2056Z" fill="#74a6da" stroke="#74a6da" stroke-width="1.51"/><path d="M3319,2421L2905,2056L2913,2395Z" fill="#75a6d9" stroke="#75a6d9" stroke-width="1.51"/><path d="M307,1225L205,1548L727,1512Z" fill="#497cb5" stroke="#497cb5" stroke-width="1.51"/><path d="M306,1789L151,2405L565,2492Z" fill="#507eb2" stroke="#507eb2" stroke-width="1.51"/><path d="M1921,648L1408,123L1432,771Z" fill="#4a81bd" stroke="#4a81bd" stroke-width="1.51"/><path d="M2207,100L1921,648L2231,773Z" fill="#5288c3" stroke="#5288c3" stroke-width="1.51"/><path d="M3265,1823L3272,1384L2757,1406Z" fill="#6fa2d9" stroke="#6fa2d9" stroke-width="1.51"/><path d="M1798,3144L2401,3139L2226,2886Z" fill="#8bb2df" stroke="#8bb2df" stroke-width="1.51"/><path d="M1978,163L1408,123L1921,648Z" fill="#497fbb" stroke="#497fbb" stroke-width="1.51"/><path d="M976,738L515,569L687,1019Z" fill="#4076b3" stroke="#4076b3" stroke-width="1.51"/><path d="M1408,123L1232,153L1432,771Z" fill="#4278b6" stroke="#4278b6" stroke-width="1.51"/><path d="M3272,1384L3235,987L2757,1406Z" fill="#699dd3" stroke="#699dd3" stroke-width="1.51"/><path d="M1027,2886L1340,3343L1406,2850Z" fill="#7ca3d3" stroke="#7ca3d3" stroke-width="1.51"/><path d="M2445,3481L2670,3284L2401,3139Z" fill="#9cbde4" stroke="#9cbde4" stroke-width="1.51"/><path d="M729,2641L929,3153L1027,2886Z" fill="#6d97ca" stroke="#6d97ca" stroke-width="1.51"/><path d="M628,3250L929,3153L729,2641Z" fill="#7298ca" stroke="#7298ca" stroke-width="1.51"/><path d="M1978,163L1938,-206L1408,123Z" fill="#4471a4" stroke="#4471a4" stroke-width="1.51"/><path d="M2646,159L2207,100L2231,773Z" fill="#5085c0" stroke="#5085c0" stroke-width="1.51"/><path d="M2646,159L2231,773L2843,683Z" fill="#568ac4" stroke="#568ac4" stroke-width="1.51"/><path d="M574,128L515,569L976,738Z" fill="#386ead" stroke="#386ead" stroke-width="1.51"/><path d="M929,3153L1340,3343L1027,2886Z" fill="#7fa4d2" stroke="#7fa4d2" stroke-width="1.51"/><path d="M3735,1625L3534,1183L3272,1384Z" fill="#7aa7da" stroke="#7aa7da" stroke-width="1.51"/><path d="M2905,2678L3319,2421L2913,2395Z" fill="#76a7d9" stroke="#76a7d9" stroke-width="1.51"/><path d="M3259,2846L3319,2421L2905,2678Z" fill="#78a8da" stroke="#78a8da" stroke-width="1.51"/><path d="M-133,2246L151,2405L306,1789Z" fill="#4c74a2" stroke="#4c74a2" stroke-width="1.51"/><path d="M199,2910L628,3250L729,2641Z" fill="#6990c3" stroke="#6990c3" stroke-width="1.51"/><path d="M3221,276L2646,159L2843,683Z" fill="#5588c1" stroke="#5588c1" stroke-width="1.51"/><path d="M2401,3139L2670,3284L2905,2678Z" fill="#8db4e0" stroke="#8db4e0" stroke-width="1.51"/><path d="M2018,3575L2401,3139L1798,3144Z" fill="#98bae3" stroke="#98bae3" stroke-width="1.51"/><path d="M515,569L274,576L687,1019Z" fill="#3a6fac" stroke="#3a6fac" stroke-width="1.51"/><path d="M307,1225L-236,1400L205,1548Z" fill="#436e9e" stroke="#436e9e" stroke-width="1.51"/><path d="M574,128L274,576L515,569Z" fill="#3267a3" stroke="#3267a3" stroke-width="1.51"/><path d="M3235,987L3273,546L2843,683Z" fill="#5e91c9" stroke="#5e91c9" stroke-width="1.51"/><path d="M3272,1384L3534,1183L3235,987Z" fill="#6c9dd2" stroke="#6c9dd2" stroke-width="1.51"/><path d="M3735,1625L3272,1384L3265,1823Z" fill="#78a8db" stroke="#78a8db" stroke-width="1.51"/><path d="M1527,3748L2018,3575L1798,3144Z" fill="#a1bee4" stroke="#a1bee4" stroke-width="1.51"/><path d="M3221,3263L3259,2846L2905,2678Z" fill="#89b2df" stroke="#89b2df" stroke-width="1.51"/><path d="M3319,2421L3649,2275L3265,1823Z" fill="#7caadb" stroke="#7caadb" stroke-width="1.51"/><path d="M929,3153L941,3739L1340,3343Z" fill="#90add6" stroke="#90add6" stroke-width="1.51"/><path d="M1340,3343L1527,3748L1798,3144Z" fill="#99b7de" stroke="#99b7de" stroke-width="1.51"/><path d="M199,2910L729,2641L565,2492Z" fill="#5887be" stroke="#5887be" stroke-width="1.51"/><path d="M2018,3575L2445,3481L2401,3139Z" fill="#a0bfe5" stroke="#a0bfe5" stroke-width="1.51"/><path d="M3456,3132L3546,2683L3259,2846Z" fill="#8eb5e0" stroke="#8eb5e0" stroke-width="1.51"/><path d="M2207,100L1938,-206L1978,163Z" fill="#4874a6" stroke="#4874a6" stroke-width="1.51"/><path d="M1408,123L1375,-231L1232,153Z" fill="#3d689c" stroke="#3d689c" stroke-width="1.51"/><path d="M1232,153L574,128L976,738Z" fill="#3970ae" stroke="#3970ae" stroke-width="1.51"/><path d="M2467,-135L1938,-206L2207,100Z" fill="#47709e" stroke="#47709e" stroke-width="1.51"/><path d="M3490,707L3273,546L3235,987Z" fill="#6293c9" stroke="#6293c9" stroke-width="1.51"/><path d="M3136,-126L2623,-29L2646,159Z" fill="#4d76a5" stroke="#4d76a5" stroke-width="1.51"/><path d="M2646,159L2623,-29L2207,100Z" fill="#4c79aa" stroke="#4c79aa" stroke-width="1.51"/><path d="M151,2405L199,2910L565,2492Z" fill="#527eb0" stroke="#527eb0" stroke-width="1.51"/><path d="M-341,1926L-133,2246L306,1789Z" fill="#476d97" stroke="#476d97" stroke-width="1.51"/><path d="M-341,1926L306,1789L205,1548Z" fill="#47709f" stroke="#47709f" stroke-width="1.51"/><path d="M1112,-197L574,128L1232,153Z" fill="#366296" stroke="#366296" stroke-width="1.51"/><path d="M-117,2733L199,2910L151,2405Z" fill="#5176a1" stroke="#5176a1" stroke-width="1.51"/><path d="M1938,-206L1375,-231L1408,123Z" fill="#3e6796" stroke="#3e6796" stroke-width="1.51"/><path d="M2623,-29L2467,-135L2207,100Z" fill="#4a73a3" stroke="#4a73a3" stroke-width="1.51"/><path d="M3546,2683L3649,2275L3319,2421Z" fill="#83aedd" stroke="#83aedd" stroke-width="1.51"/><path d="M3534,1183L3490,707L3235,987Z" fill="#6c9bcf" stroke="#6c9bcf" stroke-width="1.51"/><path d="M3751,1999L3735,1625L3265,1823Z" fill="#82aedd" stroke="#82aedd" stroke-width="1.51"/><path d="M1375,-231L1112,-197L1232,153Z" fill="#396292" stroke="#396292" stroke-width="1.51"/><path d="M-349,1147L-236,1400L307,1225Z" fill="#3e6490" stroke="#3e6490" stroke-width="1.51"/><path d="M4145,936L3490,707L3534,1183Z" fill="#7ca3d3" stroke="#7ca3d3" stroke-width="1.51"/><path d="M3273,546L3221,276L2843,683Z" fill="#598bc4" stroke="#598bc4" stroke-width="1.51"/><path d="M274,576L-33,741L307,1225Z" fill="#396699" stroke="#396699" stroke-width="1.51"/><path d="M150,152L-33,741L274,576Z" fill="#315c8f" stroke="#315c8f" stroke-width="1.51"/><path d="M3649,2275L3751,1999L3265,1823Z" fill="#83aedd" stroke="#83aedd" stroke-width="1.51"/><path d="M3631,171L3221,276L3273,546Z" fill="#5c8ac1" stroke="#5c8ac1" stroke-width="1.51"/><path d="M2623,-29L2634,-565L2467,-135Z" fill="#466992" stroke="#466992" stroke-width="1.51"/><path d="M3259,2846L3546,2683L3319,2421Z" fill="#7eabdb" stroke="#7eabdb" stroke-width="1.51"/><path d="M4082,2448L4051,1909L3751,1999Z" fill="#98bbe3" stroke="#98bbe3" stroke-width="1.51"/><path d="M3221,3263L2905,2678L2670,3284Z" fill="#90b6e0" stroke="#90b6e0" stroke-width="1.51"/><path d="M941,3739L1527,3748L1340,3343Z" fill="#9fb8dc" stroke="#9fb8dc" stroke-width="1.51"/><path d="M2018,3575L2849,3589L2445,3481Z" fill="#aac5e7" stroke="#aac5e7" stroke-width="1.51"/><path d="M-133,2246L-117,2733L151,2405Z" fill="#4c7099" stroke="#4c7099" stroke-width="1.51"/><path d="M-236,1400L-341,1926L205,1548Z" fill="#436892" stroke="#436892" stroke-width="1.51"/><path d="M628,3250L941,3739L929,3153Z" fill="#8aa7d1" stroke="#8aa7d1" stroke-width="1.51"/><path d="M199,2910L339,3289L628,3250Z" fill="#7492be" stroke="#7492be" stroke-width="1.51"/><path d="M-233,3218L339,3289L199,2910Z" fill="#6d86aa" stroke="#6d86aa" stroke-width="1.51"/><path d="M-589,2672L-117,2733L-133,2246Z" fill="#48668a" stroke="#48668a" stroke-width="1.51"/><path d="M2849,3589L2670,3284L2445,3481Z" fill="#a5c3e6" stroke="#a5c3e6" stroke-width="1.51"/><path d="M2849,3589L3221,3263L2670,3284Z" fill="#a3c1e5" stroke="#a3c1e5" stroke-width="1.51"/><path d="M-236,1400L-541,1431L-341,1926Z" fill="#3f5e82" stroke="#3f5e82" stroke-width="1.51"/><path d="M-33,741L-349,1147L307,1225Z" fill="#3a6190" stroke="#3a6190" stroke-width="1.51"/><path d="M1527,3748L2849,3589L2018,3575Z" fill="#adc8e8" stroke="#adc8e8" stroke-width="1.51"/><path d="M517,3663L941,3739L628,3250Z" fill="#92aad1" stroke="#92aad1" stroke-width="1.51"/><path d="M-33,741L-531,993L-349,1147Z" fill="#34557c" stroke="#34557c" stroke-width="1.51"/><path d="M574,128L150,152L274,576Z" fill="#2f5e96" stroke="#2f5e96" stroke-width="1.51"/><path d="M356,-231L150,152L574,128Z" fill="#2b5282" stroke="#2b5282" stroke-width="1.51"/><path d="M3300,3672L3456,3132L3221,3263Z" fill="#a5c3e6" stroke="#a5c3e6" stroke-width="1.51"/><path d="M3221,3263L3456,3132L3259,2846Z" fill="#94b8e2" stroke="#94b8e2" stroke-width="1.51"/><path d="M4051,1909L3735,1625L3751,1999Z" fill="#91b6e1" stroke="#91b6e1" stroke-width="1.51"/><path d="M1112,-197L508,-196L574,128Z" fill="#30588a" stroke="#30588a" stroke-width="1.51"/><path d="M1375,-231L935,-720L1112,-197Z" fill="#32527a" stroke="#32527a" stroke-width="1.51"/><path d="M1938,-206L1594,-543L1375,-231Z" fill="#3c5e86" stroke="#3c5e86" stroke-width="1.51"/><path d="M1772,-749L1594,-543L1938,-206Z" fill="#3a587b" stroke="#3a587b" stroke-width="1.51"/><path d="M650,-468L508,-196L1112,-197Z" fill="#2d507b" stroke="#2d507b" stroke-width="1.51"/><path d="M3456,-132L3136,-126L3221,276Z" fill="#5178a6" stroke="#5178a6" stroke-width="1.51"/><path d="M3221,276L3136,-126L2646,159Z" fill="#507cad" stroke="#507cad" stroke-width="1.51"/><path d="M2467,-135L2307,-710L1938,-206Z" fill="#426389" stroke="#426389" stroke-width="1.51"/><path d="M-349,1147L-541,1431L-236,1400Z" fill="#3b5a7f" stroke="#3b5a7f" stroke-width="1.51"/><path d="M-773,2182L-589,2672L-133,2246Z" fill="#425d7b" stroke="#425d7b" stroke-width="1.51"/><path d="M-531,993L-541,1431L-349,1147Z" fill="#365375" stroke="#365375" stroke-width="1.51"/><path d="M339,3289L517,3663L628,3250Z" fill="#85a0c9" stroke="#85a0c9" stroke-width="1.51"/><path d="M210,3686L517,3663L339,3289Z" fill="#8a9fc2" stroke="#8a9fc2" stroke-width="1.51"/><path d="M3735,1625L4040,1404L3534,1183Z" fill="#88afdd" stroke="#88afdd" stroke-width="1.51"/><path d="M3490,707L3631,171L3273,546Z" fill="#6490c6" stroke="#6490c6" stroke-width="1.51"/><path d="M4051,1909L4040,1404L3735,1625Z" fill="#94b8e2" stroke="#94b8e2" stroke-width="1.51"/><path d="M3751,1999L3649,2275L4082,2448Z" fill="#92b7e1" stroke="#92b7e1" stroke-width="1.51"/><path d="M4082,2448L3649,2275L3546,2683Z" fill="#90b6e1" stroke="#90b6e1" stroke-width="1.51"/><path d="M-475,595L-531,993L-33,741Z" fill="#315076" stroke="#315076" stroke-width="1.51"/><path d="M508,-196L356,-231L574,128Z" fill="#2b5281" stroke="#2b5281" stroke-width="1.51"/><path d="M650,-468L356,-231L508,-196Z" fill="#294a74" stroke="#294a74" stroke-width="1.51"/><path d="M-475,595L-33,741L-327,74Z" fill="#2b4c75" stroke="#2b4c75" stroke-width="1.51"/><path d="M935,-720L650,-468L1112,-197Z" fill="#2d4a71" stroke="#2d4a71" stroke-width="1.51"/><path d="M4144,547L3631,171L3490,707Z" fill="#7499ca" stroke="#7499ca" stroke-width="1.51"/><path d="M3090,-557L2634,-565L3136,-126Z" fill="#456385" stroke="#456385" stroke-width="1.51"/><path d="M3136,-126L2634,-565L2623,-29Z" fill="#486a92" stroke="#486a92" stroke-width="1.51"/><path d="M2307,-710L1772,-749L1938,-206Z" fill="#3c597a" stroke="#3c597a" stroke-width="1.51"/><path d="M1594,-543L935,-720L1375,-231Z" fill="#325074" stroke="#325074" stroke-width="1.51"/><path d="M4441,1451L4145,936L4040,1404Z" fill="#9bbae0" stroke="#9bbae0" stroke-width="1.51"/><path d="M3894,2898L4082,2448L3546,2683Z" fill="#97bae2" stroke="#97bae2" stroke-width="1.51"/><path d="M3456,3132L3894,2898L3546,2683Z" fill="#9abce3" stroke="#9abce3" stroke-width="1.51"/><path d="M4063,3118L3894,2898L3456,3132Z" fill="#abc6e8" stroke="#abc6e8" stroke-width="1.51"/><path d="M-531,993L-720,1913L-541,1431Z" fill="#395473" stroke="#395473" stroke-width="1.51"/><path d="M-541,1431L-720,1913L-341,1926Z" fill="#3d5878" stroke="#3d5878" stroke-width="1.51"/><path d="M-117,2733L-233,3218L199,2910Z" fill="#5e799d" stroke="#5e799d" stroke-width="1.51"/><path d="M2634,-565L2307,-710L2467,-135Z" fill="#415e81" stroke="#415e81" stroke-width="1.51"/><path d="M-531,993L-633,-86L-720,1913Z" fill="#2f4867" stroke="#2f4867" stroke-width="1.51"/><path d="M-327,74L-33,741L150,152Z" fill="#2b507e" stroke="#2b507e" stroke-width="1.51"/><path d="M-589,2672L-233,3218L-117,2733Z" fill="#546c8a" stroke="#546c8a" stroke-width="1.51"/><path d="M356,-231L-38,-65L150,152Z" fill="#284871" stroke="#284871" stroke-width="1.51"/><path d="M377,-570L-38,-65L356,-231Z" fill="#254064" stroke="#254064" stroke-width="1.51"/><path d="M-134,3449L210,3686L339,3289Z" fill="#8192b2" stroke="#8192b2" stroke-width="1.51"/><path d="M517,3663L210,3686L941,3739Z" fill="#98acd1" stroke="#98acd1" stroke-width="1.51"/><path d="M3631,171L3456,-132L3221,276Z" fill="#5a81b0" stroke="#5a81b0" stroke-width="1.51"/><path d="M2849,3589L3300,3672L3221,3263Z" fill="#acc7e8" stroke="#acc7e8" stroke-width="1.51"/><path d="M1527,3748L3300,3672L2849,3589Z" fill="#b1cae9" stroke="#b1cae9" stroke-width="1.51"/><path d="M4040,1404L4145,936L3534,1183Z" fill="#8baedb" stroke="#8baedb" stroke-width="1.51"/><path d="M4126,-220L3743,-513L3456,-132Z" fill="#627795" stroke="#627795" stroke-width="1.51"/><path d="M4318,1933L4040,1404L4051,1909Z" fill="#9ebee5" stroke="#9ebee5" stroke-width="1.51"/><path d="M-773,2182L-133,2246L-341,1926Z" fill="#425f80" stroke="#425f80" stroke-width="1.51"/><path d="M1772,-749L935,-720L1594,-543Z" fill="#314b69" stroke="#314b69" stroke-width="1.51"/><path d="M650,-468L377,-570L356,-231Z" fill="#264369" stroke="#264369" stroke-width="1.51"/><path d="M-720,1913L-773,2182L-341,1926Z" fill="#3e5773" stroke="#3e5773" stroke-width="1.51"/><path d="M-633,-86L-773,2182L-720,1913Z" fill="#354d6a" stroke="#354d6a" stroke-width="1.51"/><path d="M-233,3218L-134,3449L339,3289Z" fill="#7487a5" stroke="#7487a5" stroke-width="1.51"/><path d="M-661,3748L-134,3449L-233,3218Z" fill="#747f91" stroke="#747f91" stroke-width="1.51"/><path d="M4082,2448L4318,1933L4051,1909Z" fill="#a2c1e5" stroke="#a2c1e5" stroke-width="1.51"/><path d="M4462,2294L4318,1933L4082,2448Z" fill="#a9c5e7" stroke="#a9c5e7" stroke-width="1.51"/><path d="M3456,-132L3090,-557L3136,-126Z" fill="#4a6b90" stroke="#4a6b90" stroke-width="1.51"/><path d="M2634,-565L3090,-557L2307,-710Z" fill="#3f5976" stroke="#3f5976" stroke-width="1.51"/><path d="M-633,-86L-327,74L-38,-65Z" fill="#223855" stroke="#223855" stroke-width="1.51"/><path d="M-38,-65L-327,74L150,152Z" fill="#27446a" stroke="#27446a" stroke-width="1.51"/><path d="M935,-720L377,-570L650,-468Z" fill="#274164" stroke="#274164" stroke-width="1.51"/><path d="M4145,936L4144,547L3490,707Z" fill="#82a4d1" stroke="#82a4d1" stroke-width="1.51"/><path d="M3456,-132L3743,-513L3090,-557Z" fill="#4e6889" stroke="#4e6889" stroke-width="1.51"/><path d="M4305,687L4144,547L4145,936Z" fill="#90acd5" stroke="#90acd5" stroke-width="1.51"/><path d="M-327,74L-551,323L-475,595Z" fill="#264267" stroke="#264267" stroke-width="1.51"/><path d="M-475,595L-551,323L-531,993Z" fill="#2b4669" stroke="#2b4669" stroke-width="1.51"/><path d="M4318,1933L4441,1451L4040,1404Z" fill="#a4c1e6" stroke="#a4c1e6" stroke-width="1.51"/><path d="M3894,2898L4541,2698L4082,2448Z" fill="#a8c4e7" stroke="#a8c4e7" stroke-width="1.51"/><path d="M4318,1933L4462,2294L4441,1451Z" fill="#adc7e8" stroke="#adc7e8" stroke-width="1.51"/><path d="M3664,3704L4063,3118L3456,3132Z" fill="#b7ceeb" stroke="#b7ceeb" stroke-width="1.51"/><path d="M4533,1004L4305,687L4145,936Z" fill="#9ab3da" stroke="#9ab3da" stroke-width="1.51"/><path d="M4144,547L4143,95L3631,171Z" fill="#7b99c5" stroke="#7b99c5" stroke-width="1.51"/><path d="M3300,3672L3664,3704L3456,3132Z" fill="#b5cdea" stroke="#b5cdea" stroke-width="1.51"/><path d="M1527,3748L3664,3704L3300,3672Z" fill="#b5cdea" stroke="#b5cdea" stroke-width="1.51"/><path d="M4541,2698L4462,2294L4082,2448Z" fill="#afc8e9" stroke="#afc8e9" stroke-width="1.51"/><path d="M-134,3449L-661,3748L210,3686Z" fill="#7f8a9e" stroke="#7f8a9e" stroke-width="1.51"/><path d="M-589,2672L-769,3067L-233,3218Z" fill="#55677e" stroke="#55677e" stroke-width="1.51"/><path d="M-773,2182L-769,3067L-589,2672Z" fill="#40566e" stroke="#40566e" stroke-width="1.51"/><path d="M4441,1451L4533,1004L4145,936Z" fill="#a1bbe0" stroke="#a1bbe0" stroke-width="1.51"/><path d="M4462,2294L4533,1004L4441,1451Z" fill="#aec8e9" stroke="#aec8e9" stroke-width="1.51"/><path d="M4555,112L4144,547L4305,687Z" fill="#91aad1" stroke="#91aad1" stroke-width="1.51"/><path d="M4555,112L4143,95L4144,547Z" fill="#8aa1c7" stroke="#8aa1c7" stroke-width="1.51"/><path d="M4462,2294L4541,2698L4533,1004Z" fill="#b3cbea" stroke="#b3cbea" stroke-width="1.51"/><path d="M4393,3088L4541,2698L3894,2898Z" fill="#b9d0ec" stroke="#b9d0ec" stroke-width="1.51"/><path d="M4393,3088L3894,2898L4063,3118Z" fill="#bad0eb" stroke="#bad0eb" stroke-width="1.51"/><path d="M-327,74L-633,-86L-551,323Z" fill="#213654" stroke="#213654" stroke-width="1.51"/><path d="M-551,323L-633,-86L-531,993Z" fill="#264062" stroke="#264062" stroke-width="1.51"/><path d="M-224,-687L-633,-86L-38,-65Z" fill="#1e2e45" stroke="#1e2e45" stroke-width="1.51"/><path d="M4126,-220L3456,-132L3631,171Z" fill="#6682a7" stroke="#6682a7" stroke-width="1.51"/><path d="M3090,-557L3963,-634L2307,-710Z" fill="#425a75" stroke="#425a75" stroke-width="1.51"/><path d="M4416,3677L4393,3088L4063,3118Z" fill="#d0dff2" stroke="#d0dff2" stroke-width="1.51"/><path d="M3664,3704L3992,3699L4063,3118Z" fill="#cadbf0" stroke="#cadbf0" stroke-width="1.51"/><path d="M1527,3748L3992,3699L3664,3704Z" fill="#b7ceeb" stroke="#b7ceeb" stroke-width="1.51"/><path d="M4143,95L4126,-220L3631,171Z" fill="#738baf" stroke="#738baf" stroke-width="1.51"/><path d="M4404,-135L4126,-220L4143,95Z" fill="#7d8eab" stroke="#7d8eab" stroke-width="1.51"/><path d="M377,-570L-224,-687L-38,-65Z" fill="#20334d" stroke="#20334d" stroke-width="1.51"/><path d="M935,-720L-224,-687L377,-570Z" fill="#213552" stroke="#213552" stroke-width="1.51"/><path d="M1772,-749L-224,-687L935,-720Z" fill="#273e5c" stroke="#273e5c" stroke-width="1.51"/><path d="M-769,3067L-661,3748L-233,3218Z" fill="#677282" stroke="#677282" stroke-width="1.51"/><path d="M210,3686L-661,3748L941,3739Z" fill="#8f9cb7" stroke="#8f9cb7" stroke-width="1.51"/><path d="M941,3739L-661,3748L1527,3748Z" fill="#9bafd3" stroke="#9bafd3" stroke-width="1.51"/><path d="M4126,-220L3963,-634L3743,-513Z" fill="#65748a" stroke="#65748a" stroke-width="1.51"/><path d="M3743,-513L3963,-634L3090,-557Z" fill="#52657d" stroke="#52657d" stroke-width="1.51"/><path d="M2307,-710L4549,-742L1772,-749Z" fill="#3d546d" stroke="#3d546d" stroke-width="1.51"/><path d="M4126,-220L4549,-742L3963,-634Z" fill="#6e7888" stroke="#6e7888" stroke-width="1.51"/><path d="M4533,1004L4555,112L4305,687Z" fill="#9ab1d6" stroke="#9ab1d6" stroke-width="1.51"/><path d="M4541,2698L4555,112L4533,1004Z" fill="#acc4e5" stroke="#acc4e5" stroke-width="1.51"/><path d="M4555,112L4404,-135L4143,95Z" fill="#8798b6" stroke="#8798b6" stroke-width="1.51"/><path d="M-224,-687L-590,-645L-633,-86Z" fill="#17202e" stroke="#17202e" stroke-width="1.51"/><path d="M3992,3699L4416,3677L4063,3118Z" fill="#d5e2f3" stroke="#d5e2f3" stroke-width="1.51"/><path d="M4393,3088L4416,3677L4541,2698Z" fill="#d0dff2" stroke="#d0dff2" stroke-width="1.51"/><path d="M4555,112L4549,-742L4404,-135Z" fill="#848ea1" stroke="#848ea1" stroke-width="1.51"/><path d="M4404,-135L4549,-742L4126,-220Z" fill="#7a8496" stroke="#7a8496" stroke-width="1.51"/><path d="M3963,-634L4549,-742L2307,-710Z" fill="#4f5f74" stroke="#4f5f74" stroke-width="1.51"/></svg>