<?xml version="1.0" encoding="UTF-8" ?>
<!DOCTYPE svg PUBLIC "-//W3C//DTD SVG 1.1//EN" "http://www.w3.org/Graphics/SVG/1.1/DTD/svg11.dtd">
<svg width="280pt" height="278pt" viewBox="0 0 280 278" version="1.1" xmlns="http://www.w3.org/2000/svg">
<g id="#3165d4fe">
<path fill="#3165d4" opacity="1.00" d=" M 140.18 0.00 L 140.83 0.00 C 165.36 1.05 189.89 7.17 210.99 19.97 C 231.30 32.42 248.76 49.77 260.48 70.57 C 286.87 115.92 284.24 176.66 253.00 219.01 C 236.09 242.94 211.47 261.36 183.61 270.49 C 169.75 274.90 155.31 276.93 140.84 278.00 L 140.22 278.00 C 128.73 277.02 117.15 276.03 105.95 273.08 C 67.15 263.52 33.42 235.91 15.99 200.01 C -4.96 158.61 -2.54 106.39 21.98 67.02 C 46.32 26.14 92.84 0.65 140.18 0.00 M 74.98 51.96 C 64.25 60.98 53.17 72.35 52.22 87.13 C 52.20 99.54 58.17 110.88 63.07 121.94 C 76.74 152.45 93.15 181.58 108.87 211.05 C 112.56 218.07 116.27 225.17 121.32 231.33 C 154.12 189.41 186.96 147.52 219.06 105.07 C 222.46 100.34 226.25 95.62 227.98 89.96 C 228.48 72.77 217.15 56.45 202.06 48.89 C 196.42 45.44 188.92 46.76 184.35 51.35 C 164.91 69.37 149.75 91.30 133.51 112.09 C 126.74 98.28 119.00 84.98 111.39 71.62 C 106.23 63.37 101.22 54.72 93.69 48.36 C 87.89 44.29 79.74 47.60 74.98 51.96 Z" />
</g>
<g id="#fefeffff">
<path fill="#fefeff" opacity="1.00" d=" M 74.98 51.96 C 79.74 47.60 87.89 44.29 93.69 48.36 C 101.22 54.72 106.23 63.37 111.39 71.62 C 119.00 84.98 126.74 98.28 133.51 112.09 C 149.75 91.30 164.91 69.37 184.35 51.35 C 188.92 46.76 196.42 45.44 202.06 48.89 C 217.15 56.45 228.48 72.77 227.98 89.96 C 226.25 95.62 222.46 100.34 219.06 105.07 C 186.96 147.52 154.12 189.41 121.32 231.33 C 116.27 225.17 112.56 218.07 108.87 211.05 C 93.15 181.58 76.74 152.45 63.07 121.94 C 58.17 110.88 52.20 99.54 52.22 87.13 C 53.17 72.35 64.25 60.98 74.98 51.96 Z" />
</g>
</svg>
