<?xml version="1.0" encoding="UTF-8" ?>
<!DOCTYPE svg PUBLIC "-//W3C//DTD SVG 1.1//EN" "http://www.w3.org/Graphics/SVG/1.1/DTD/svg11.dtd">
<svg width="300pt" height="300pt" viewBox="0 0 300 300" version="1.1" xmlns="http://www.w3.org/2000/svg">
<g id="#3165d4fe">
<path fill="#3165d4" opacity="1.00" d=" M 27.07 65.06 C 55.34 23.62 105.76 -2.06 156.02 1.06 C 194.26 2.23 231.78 19.16 257.93 47.09 C 285.42 75.89 301.40 116.07 298.96 156.02 C 297.79 208.91 265.29 259.48 218.01 283.01 C 197.90 293.70 175.16 298.66 152.55 300.00 L 146.47 300.00 C 110.64 298.52 75.14 284.73 48.83 260.16 C 30.52 243.76 16.90 222.43 8.70 199.32 C 3.40 184.58 1.44 168.95 0.00 153.43 L 0.00 147.45 C 1.70 118.27 9.91 89.02 27.07 65.06 M 84.70 52.69 C 67.43 63.78 50.46 82.96 55.84 105.14 C 62.08 124.16 71.52 141.92 80.04 159.98 C 96.10 190.24 110.92 221.27 129.41 250.15 C 158.14 212.68 187.71 175.86 216.15 138.16 C 225.60 125.56 235.87 113.50 243.94 99.92 C 245.61 97.43 244.80 94.13 244.57 91.43 C 242.71 76.54 233.27 63.24 220.79 55.20 C 215.68 51.90 208.97 49.05 203.00 52.04 C 192.14 58.15 184.72 68.47 176.60 77.62 C 164.41 91.42 154.36 106.93 142.61 121.07 C 131.42 100.34 121.21 78.89 107.13 59.89 C 104.22 55.86 100.51 51.92 95.69 50.31 C 91.93 49.67 88.01 50.93 84.70 52.69 Z" />
</g>
<g id="#fefeffff">
<path fill="#fefeff" opacity="1.00" d=" M 84.70 52.69 C 88.01 50.93 91.93 49.67 95.69 50.31 C 100.51 51.92 104.22 55.86 107.13 59.89 C 121.21 78.89 131.42 100.34 142.61 121.07 C 154.36 106.93 164.41 91.42 176.60 77.62 C 184.72 68.47 192.14 58.15 203.00 52.04 C 208.97 49.05 215.68 51.90 220.79 55.20 C 233.27 63.24 242.71 76.54 244.57 91.43 C 244.80 94.13 245.61 97.43 243.94 99.92 C 235.87 113.50 225.60 125.56 216.15 138.16 C 187.71 175.86 158.14 212.68 129.41 250.15 C 110.92 221.27 96.10 190.24 80.04 159.98 C 71.52 141.92 62.08 124.16 55.84 105.14 C 50.46 82.96 67.43 63.78 84.70 52.69 Z" />
</g>
</svg>
