<?xml version="1.0" encoding="UTF-8" ?>
<!DOCTYPE svg PUBLIC "-//W3C//DTD SVG 1.1//EN" "http://www.w3.org/Graphics/SVG/1.1/DTD/svg11.dtd">
<svg width="844pt" height="847pt" viewBox="0 0 844 847" version="1.1" xmlns="http://www.w3.org/2000/svg">
<g id="#003bf9ff">
<path fill="#003bf9" opacity="1.00" d=" M 206.03 91.12 C 219.58 85.89 234.54 83.22 248.95 85.95 C 254.66 86.51 260.09 88.37 265.62 89.75 L 265.53 90.14 C 267.45 90.80 269.35 91.52 271.23 92.31 L 271.83 92.64 C 273.66 93.46 275.53 94.20 277.41 94.90 L 277.34 95.75 L 278.12 95.53 C 279.78 96.59 281.45 97.63 283.11 98.69 C 285.41 100.24 287.72 101.78 289.98 103.40 C 290.21 103.48 290.66 103.64 290.89 103.72 C 292.86 105.87 294.94 107.93 297.00 110.01 C 300.22 113.16 303.65 116.19 305.96 120.12 C 306.35 120.58 307.14 121.49 307.54 121.95 C 307.53 122.20 307.51 122.70 307.51 122.95 C 308.85 124.62 310.15 126.33 311.49 128.01 C 311.51 128.22 311.55 128.63 311.57 128.84 C 312.38 129.99 313.15 131.19 314.08 132.26 C 314.30 132.37 314.75 132.57 314.98 132.68 C 315.56 133.85 316.17 135.00 316.77 136.17 C 317.23 136.61 318.17 137.49 318.63 137.93 C 318.58 138.22 318.46 138.80 318.41 139.09 C 318.97 139.54 320.09 140.44 320.65 140.89 C 320.59 141.19 320.46 141.79 320.40 142.09 C 320.96 142.54 322.09 143.44 322.65 143.89 C 322.59 144.19 322.46 144.79 322.40 145.09 C 322.96 145.54 324.09 146.44 324.65 146.89 C 324.59 147.19 324.46 147.79 324.40 148.09 C 324.96 148.54 326.09 149.44 326.65 149.89 C 326.59 150.19 326.46 150.79 326.40 151.09 C 326.96 151.54 328.09 152.44 328.65 152.89 C 328.59 153.19 328.46 153.79 328.40 154.09 C 328.96 154.54 330.09 155.44 330.65 155.89 C 330.59 156.19 330.46 156.79 330.40 157.09 C 330.96 157.54 332.09 158.44 332.65 158.89 C 332.59 159.19 332.46 159.79 332.40 160.09 C 332.96 160.54 334.09 161.44 334.65 161.89 C 334.59 162.19 334.46 162.79 334.39 163.09 C 334.96 163.54 336.09 164.44 336.65 164.89 C 336.59 165.19 336.46 165.79 336.39 166.09 C 336.96 166.54 338.09 167.44 338.65 167.89 C 338.59 168.19 338.46 168.79 338.39 169.09 C 338.96 169.54 340.09 170.44 340.65 170.89 C 340.59 171.19 340.46 171.79 340.39 172.09 C 340.96 172.54 342.09 173.44 342.65 173.89 C 342.59 174.19 342.46 174.79 342.39 175.09 C 342.96 175.54 344.09 176.44 344.65 176.89 C 344.59 177.19 344.46 177.79 344.39 178.09 C 344.96 178.54 346.09 179.44 346.65 179.89 C 346.59 180.19 346.45 180.79 346.39 181.09 C 346.95 181.54 348.09 182.44 348.65 182.89 C 348.59 183.19 348.45 183.79 348.39 184.09 C 348.95 184.54 350.08 185.44 350.65 185.89 C 350.58 186.19 350.45 186.79 350.39 187.09 C 350.95 187.54 352.08 188.44 352.65 188.89 C 352.58 189.19 352.45 189.79 352.39 190.09 C 352.96 190.54 354.10 191.45 354.66 191.91 L 354.38 193.08 C 355.13 193.68 355.88 194.28 356.63 194.88 C 356.58 195.18 356.46 195.79 356.40 196.10 C 356.96 196.55 358.09 197.44 358.65 197.89 C 358.58 198.19 358.45 198.79 358.39 199.09 C 358.95 199.54 360.08 200.44 360.65 200.90 C 360.58 201.19 360.45 201.79 360.39 202.09 C 360.95 202.54 362.08 203.44 362.65 203.89 C 362.58 204.19 362.45 204.79 362.39 205.09 C 362.95 205.54 364.08 206.44 364.65 206.89 C 364.58 207.19 364.45 207.79 364.38 208.09 C 364.96 208.55 366.12 209.48 366.70 209.94 L 366.34 211.03 C 367.10 211.65 367.87 212.27 368.64 212.89 C 368.58 213.19 368.45 213.79 368.39 214.09 C 368.95 214.54 370.08 215.44 370.64 215.89 C 370.58 216.19 370.45 216.79 370.38 217.09 C 370.95 217.54 372.08 218.44 372.64 218.89 C 372.58 219.19 372.45 219.79 372.38 220.09 C 372.95 220.54 374.08 221.44 374.64 221.89 C 374.58 222.19 374.45 222.79 374.39 223.08 C 374.94 223.53 376.04 224.42 376.60 224.87 C 376.57 225.14 376.52 225.68 376.49 225.95 C 379.29 229.09 381.72 232.52 383.88 236.13 C 384.31 236.59 385.18 237.50 385.61 237.96 C 385.56 238.24 385.46 238.81 385.41 239.09 C 385.97 239.54 387.09 240.44 387.65 240.89 C 387.59 241.19 387.46 241.79 387.40 242.09 C 387.96 242.54 389.09 243.44 389.65 243.89 C 389.59 244.19 389.46 244.79 389.40 245.08 C 389.96 245.54 391.09 246.44 391.65 246.89 C 391.59 247.19 391.46 247.79 391.40 248.09 C 391.98 248.55 393.14 249.48 393.72 249.95 L 393.34 251.02 C 394.10 251.64 394.86 252.25 395.62 252.87 C 395.59 253.13 395.52 253.64 395.49 253.90 C 396.31 254.91 397.13 255.93 397.96 256.95 C 399.34 258.29 400.70 259.65 402.08 261.00 C 403.06 261.99 404.01 263.01 405.00 264.01 C 405.67 264.51 406.35 265.01 407.04 265.51 L 407.83 265.64 C 409.96 266.58 412.16 267.37 414.38 268.10 L 412.46 268.42 C 420.44 269.21 428.93 269.74 436.16 265.59 L 436.95 265.54 C 437.63 265.03 438.31 264.52 439.00 264.02 C 439.66 263.32 440.33 262.64 441.00 261.95 C 444.63 258.67 447.74 254.91 450.48 250.87 C 450.46 250.62 450.42 250.12 450.40 249.87 C 450.95 249.42 452.06 248.53 452.61 248.08 C 452.54 247.79 452.42 247.19 452.35 246.89 C 452.92 246.44 454.05 245.54 454.61 245.09 C 454.55 244.79 454.41 244.19 454.35 243.89 C 454.91 243.44 456.04 242.54 456.61 242.09 C 456.54 241.79 456.42 241.19 456.35 240.89 C 456.91 240.44 458.04 239.54 458.61 239.09 C 458.54 238.79 458.41 238.19 458.35 237.89 C 458.91 237.44 460.04 236.54 460.61 236.09 C 460.54 235.79 460.41 235.19 460.35 234.89 C 460.91 234.44 462.04 233.54 462.61 233.09 C 462.54 232.79 462.41 232.19 462.35 231.89 C 462.91 231.44 464.04 230.54 464.61 230.09 C 464.54 229.79 464.41 229.19 464.35 228.89 C 464.91 228.44 466.04 227.54 466.61 227.09 C 466.54 226.79 466.41 226.19 466.35 225.89 C 466.91 225.44 468.04 224.54 468.61 224.09 C 468.54 223.79 468.41 223.19 468.35 222.89 C 468.91 222.44 470.04 221.54 470.61 221.09 C 470.54 220.79 470.41 220.19 470.35 219.89 C 470.91 219.44 472.04 218.54 472.61 218.09 C 472.54 217.79 472.41 217.19 472.35 216.89 C 472.91 216.44 474.04 215.54 474.61 215.09 C 474.54 214.79 474.41 214.19 474.35 213.89 C 474.91 213.44 476.04 212.54 476.61 212.09 C 476.54 211.79 476.41 211.19 476.35 210.89 C 476.91 210.44 478.04 209.54 478.61 209.09 C 478.54 208.79 478.41 208.19 478.35 207.89 C 478.91 207.44 480.04 206.54 480.61 206.09 C 480.54 205.79 480.41 205.19 480.35 204.89 C 480.91 204.44 482.04 203.54 482.60 203.09 C 482.54 202.79 482.41 202.19 482.35 201.89 C 482.91 201.44 484.04 200.54 484.60 200.09 C 484.54 199.79 484.41 199.19 484.35 198.89 C 484.91 198.44 486.04 197.54 486.60 197.09 C 486.54 196.79 486.41 196.19 486.35 195.89 C 486.91 195.44 488.04 194.54 488.60 194.09 C 488.54 193.79 488.41 193.19 488.35 192.89 C 488.91 192.44 490.04 191.54 490.60 191.09 C 490.54 190.79 490.41 190.19 490.35 189.89 C 490.91 189.44 492.04 188.54 492.60 188.09 C 492.54 187.79 492.41 187.19 492.35 186.89 C 492.91 186.44 494.04 185.54 494.60 185.09 C 494.54 184.79 494.41 184.19 494.35 183.89 C 494.91 183.44 496.04 182.54 496.60 182.09 C 496.54 181.79 496.41 181.19 496.35 180.89 C 496.91 180.44 498.04 179.54 498.60 179.09 C 498.54 178.79 498.41 178.19 498.35 177.89 C 498.91 177.44 500.04 176.54 500.60 176.09 C 500.54 175.79 500.41 175.19 500.35 174.89 C 500.91 174.44 502.04 173.54 502.60 173.09 C 502.54 172.79 502.41 172.19 502.35 171.89 C 502.91 171.44 504.04 170.54 504.60 170.09 C 504.54 169.79 504.41 169.19 504.35 168.89 C 504.91 168.44 506.04 167.54 506.60 167.09 C 506.54 166.79 506.41 166.19 506.35 165.89 C 506.91 165.44 508.04 164.54 508.60 164.09 C 508.54 163.79 508.41 163.19 508.35 162.89 C 508.91 162.44 510.04 161.54 510.60 161.09 C 510.54 160.79 510.41 160.19 510.35 159.89 C 510.91 159.44 512.03 158.54 512.59 158.09 C 512.53 157.79 512.41 157.19 512.35 156.89 C 513.09 156.28 513.84 155.67 514.59 155.06 L 514.44 154.11 C 514.88 153.50 515.75 152.27 516.19 151.66 C 516.39 151.56 516.79 151.37 516.99 151.27 C 518.41 149.08 519.89 146.93 521.46 144.83 C 521.45 144.59 521.43 144.11 521.42 143.87 C 521.97 143.42 523.06 142.53 523.61 142.08 C 523.55 141.79 523.42 141.19 523.36 140.89 C 523.92 140.44 525.05 139.54 525.61 139.09 C 525.55 138.79 525.42 138.19 525.36 137.89 C 525.92 137.44 527.05 136.54 527.61 136.09 C 527.55 135.79 527.42 135.19 527.36 134.89 C 527.92 134.44 529.05 133.54 529.61 133.09 C 529.55 132.79 529.42 132.19 529.36 131.89 C 529.92 131.44 531.05 130.54 531.61 130.09 C 531.55 129.79 531.42 129.19 531.36 128.89 C 531.92 128.44 533.05 127.54 533.61 127.09 C 533.55 126.79 533.42 126.19 533.36 125.89 C 533.92 125.44 535.05 124.54 535.61 124.09 C 535.55 123.79 535.42 123.19 535.36 122.89 C 535.91 122.45 537.03 121.55 537.58 121.11 C 537.54 120.82 537.45 120.24 537.40 119.94 C 541.32 115.37 545.79 111.30 550.00 107.00 C 551.33 105.65 552.67 104.31 553.98 102.94 C 556.74 101.17 559.48 99.38 562.08 97.37 L 563.19 97.57 C 563.34 97.20 563.64 96.45 563.79 96.07 C 564.90 95.57 566.01 95.05 567.11 94.53 C 567.42 94.54 568.05 94.56 568.36 94.57 L 568.66 93.35 L 569.78 93.44 C 571.52 92.59 573.30 91.85 575.09 91.10 C 589.26 85.57 604.94 83.05 619.99 86.03 C 625.38 87.08 630.72 88.43 635.97 90.04 C 637.72 90.84 639.49 91.63 641.22 92.50 C 641.48 92.44 642.01 92.32 642.27 92.26 C 642.38 92.62 642.59 93.34 642.70 93.70 L 644.31 93.27 C 644.41 93.64 644.62 94.37 644.73 94.73 L 645.89 94.39 C 647.26 95.25 648.63 96.09 650.02 96.93 C 650.49 97.33 651.44 98.14 651.91 98.55 C 652.17 98.52 652.69 98.48 652.95 98.46 C 653.54 98.83 654.73 99.58 655.32 99.95 C 655.41 100.24 655.60 100.80 655.69 101.08 C 656.81 101.65 657.93 102.24 659.06 102.82 C 659.68 103.58 660.30 104.34 660.93 105.10 C 661.94 105.68 662.95 106.27 663.97 106.86 C 665.27 108.23 666.60 109.58 667.95 110.92 C 671.64 113.17 674.48 116.47 677.52 119.49 C 685.15 127.54 693.69 134.76 700.58 143.48 C 708.44 151.76 715.25 160.96 722.12 170.07 C 723.11 171.46 724.08 172.88 725.02 174.32 C 725.26 174.40 725.73 174.56 725.97 174.64 C 726.55 175.82 727.15 176.99 727.76 178.17 C 728.23 178.62 729.19 179.52 729.67 179.97 L 729.36 181.04 C 730.11 181.66 730.88 182.27 731.65 182.89 C 731.58 183.19 731.46 183.79 731.40 184.09 C 731.95 184.53 733.06 185.42 733.61 185.87 C 733.58 186.14 733.53 186.67 733.50 186.94 C 734.51 188.30 735.50 189.68 736.53 191.03 C 736.50 191.30 736.46 191.84 736.44 192.11 C 736.98 192.55 738.06 193.43 738.60 193.88 C 738.58 194.14 738.53 194.67 738.50 194.94 C 739.50 196.28 740.47 197.65 741.48 199.00 C 741.50 199.24 741.54 199.72 741.56 199.96 C 742.52 201.29 743.46 202.66 744.44 204.00 C 744.49 204.22 744.60 204.65 744.66 204.86 C 745.93 206.91 747.09 209.04 748.33 211.11 C 748.44 211.29 748.66 211.64 748.77 211.82 C 758.56 230.56 768.15 249.63 773.82 270.08 C 776.75 280.36 777.52 291.29 775.64 301.82 C 774.27 314.17 768.70 325.54 762.64 336.22 C 762.62 336.45 762.57 336.92 762.55 337.15 C 762.01 337.59 760.94 338.48 760.40 338.92 C 760.46 339.22 760.59 339.81 760.65 340.11 C 760.09 340.56 758.96 341.46 758.40 341.91 C 758.46 342.21 758.59 342.81 758.65 343.11 C 758.09 343.56 756.96 344.46 756.39 344.91 C 756.46 345.21 756.59 345.81 756.65 346.11 C 756.09 346.56 754.96 347.46 754.40 347.91 C 754.46 348.21 754.59 348.81 754.65 349.11 C 754.09 349.56 752.96 350.46 752.39 350.91 C 752.46 351.21 752.59 351.81 752.65 352.11 C 752.09 352.56 750.96 353.46 750.39 353.91 C 750.46 354.21 750.59 354.81 750.65 355.11 C 750.09 355.56 748.96 356.46 748.39 356.91 C 748.46 357.21 748.59 357.81 748.65 358.11 C 748.09 358.56 746.96 359.46 746.39 359.91 C 746.46 360.21 746.59 360.81 746.65 361.11 C 746.09 361.56 744.96 362.46 744.39 362.91 C 744.46 363.21 744.59 363.81 744.65 364.11 C 744.09 364.56 742.96 365.46 742.39 365.91 C 742.46 366.21 742.59 366.81 742.65 367.11 C 742.09 367.56 740.96 368.46 740.39 368.91 C 740.46 369.21 740.59 369.81 740.65 370.11 C 740.09 370.56 738.96 371.46 738.39 371.91 C 738.46 372.21 738.59 372.81 738.65 373.11 C 738.09 373.56 736.96 374.46 736.39 374.91 C 736.46 375.21 736.59 375.81 736.65 376.11 C 736.09 376.56 734.96 377.46 734.39 377.91 C 734.46 378.21 734.59 378.81 734.65 379.11 C 734.09 379.56 732.96 380.46 732.39 380.91 C 732.46 381.21 732.59 381.81 732.65 382.11 C 732.09 382.56 730.96 383.46 730.39 383.91 C 730.46 384.21 730.59 384.81 730.65 385.11 C 730.09 385.56 728.96 386.46 728.39 386.91 C 728.46 387.21 728.59 387.81 728.65 388.11 C 728.09 388.56 726.96 389.46 726.39 389.91 C 726.46 390.21 726.58 390.81 726.65 391.11 C 726.08 391.56 724.96 392.46 724.39 392.91 C 724.46 393.21 724.58 393.81 724.65 394.11 C 724.08 394.56 722.96 395.46 722.39 395.91 C 722.46 396.21 722.59 396.81 722.65 397.11 C 722.09 397.56 720.96 398.46 720.39 398.91 C 720.46 399.21 720.59 399.81 720.65 400.11 C 720.09 400.56 718.96 401.46 718.39 401.91 C 718.46 402.21 718.59 402.81 718.65 403.11 C 718.09 403.56 716.96 404.46 716.39 404.91 C 716.46 405.21 716.59 405.81 716.65 406.11 C 716.08 406.56 714.96 407.46 714.39 407.91 C 714.46 408.21 714.58 408.81 714.65 409.11 C 714.08 409.56 712.96 410.46 712.39 410.91 C 712.46 411.21 712.58 411.81 712.65 412.11 C 712.09 412.56 710.96 413.46 710.39 413.91 C 710.46 414.21 710.58 414.81 710.65 415.11 C 710.08 415.56 708.96 416.46 708.39 416.91 C 708.46 417.21 708.59 417.81 708.65 418.11 C 708.09 418.56 706.96 419.46 706.39 419.91 C 706.46 420.21 706.58 420.81 706.65 421.11 C 706.08 421.56 704.96 422.46 704.39 422.91 C 704.46 423.21 704.58 423.81 704.65 424.11 C 704.08 424.56 702.96 425.46 702.39 425.91 C 702.46 426.21 702.58 426.81 702.65 427.11 C 702.09 427.56 700.96 428.46 700.40 428.91 C 700.46 429.21 700.58 429.81 700.64 430.12 C 699.87 430.72 699.12 431.32 698.37 431.93 L 698.68 433.08 C 698.10 433.54 696.96 434.45 696.39 434.91 C 696.46 435.21 696.59 435.81 696.65 436.11 C 696.09 436.56 694.96 437.46 694.39 437.91 C 694.46 438.21 694.59 438.81 694.65 439.11 C 694.08 439.56 692.95 440.46 692.39 440.91 C 692.45 441.21 692.59 441.81 692.65 442.10 C 692.09 442.55 690.96 443.45 690.40 443.90 C 690.46 444.21 690.58 444.82 690.64 445.12 C 689.88 445.72 689.13 446.32 688.38 446.92 L 688.66 448.09 C 688.09 448.55 686.96 449.46 686.39 449.91 C 686.45 450.21 686.58 450.81 686.65 451.11 C 686.08 451.56 684.95 452.46 684.39 452.91 C 684.45 453.21 684.58 453.81 684.65 454.11 C 684.09 454.56 682.96 455.46 682.39 455.91 C 682.46 456.21 682.58 456.81 682.65 457.11 C 682.08 457.56 680.95 458.46 680.39 458.91 C 680.45 459.21 680.58 459.81 680.65 460.11 C 680.08 460.56 678.95 461.46 678.39 461.91 C 678.45 462.21 678.58 462.81 678.65 463.11 C 678.08 463.56 676.95 464.46 676.39 464.91 C 676.45 465.21 676.58 465.81 676.65 466.11 C 676.08 466.56 674.96 467.46 674.39 467.91 C 674.46 468.21 674.58 468.81 674.65 469.11 C 674.08 469.56 672.96 470.46 672.39 470.91 C 672.46 471.21 672.58 471.81 672.65 472.11 C 672.08 472.56 670.95 473.46 670.39 473.91 C 670.45 474.21 670.59 474.81 670.65 475.11 C 670.08 475.56 668.95 476.46 668.39 476.91 C 668.45 477.21 668.59 477.81 668.65 478.10 C 668.09 478.55 666.96 479.46 666.39 479.91 C 666.46 480.21 666.58 480.81 666.64 481.11 C 665.87 481.73 665.10 482.35 664.33 482.97 L 664.71 484.05 C 664.13 484.52 662.97 485.45 662.39 485.91 C 662.45 486.21 662.59 486.81 662.65 487.11 C 662.09 487.56 660.96 488.46 660.39 488.91 C 660.46 489.21 660.58 489.81 660.65 490.11 C 660.09 490.56 658.96 491.46 658.39 491.91 C 658.46 492.21 658.58 492.81 658.65 493.11 C 658.08 493.56 656.96 494.46 656.39 494.91 C 656.46 495.21 656.58 495.81 656.65 496.11 C 656.08 496.56 654.95 497.46 654.39 497.91 C 654.46 498.21 654.59 498.81 654.65 499.11 C 654.09 499.56 652.96 500.46 652.40 500.91 C 652.46 501.21 652.58 501.81 652.64 502.12 C 651.87 502.73 651.10 503.35 650.34 503.97 L 650.70 505.07 C 650.12 505.53 648.97 506.45 648.39 506.91 C 648.46 507.21 648.59 507.81 648.65 508.11 C 648.09 508.56 646.96 509.46 646.39 509.91 C 646.46 510.21 646.58 510.81 646.65 511.11 C 646.08 511.56 644.96 512.46 644.39 512.91 C 644.46 513.21 644.58 513.81 644.65 514.11 C 644.09 514.56 642.96 515.46 642.39 515.91 C 642.46 516.21 642.58 516.81 642.65 517.11 C 641.87 517.73 641.10 518.34 640.34 518.97 L 640.70 520.06 C 640.12 520.53 638.97 521.45 638.39 521.91 C 638.46 522.21 638.59 522.81 638.65 523.11 C 638.09 523.56 636.96 524.46 636.39 524.91 C 636.46 525.21 636.59 525.81 636.65 526.11 C 636.09 526.56 634.96 527.46 634.39 527.91 C 634.46 528.21 634.59 528.81 634.65 529.11 C 634.09 529.56 632.96 530.46 632.39 530.91 C 632.46 531.21 632.59 531.81 632.65 532.11 C 632.09 532.56 630.96 533.46 630.39 533.91 C 630.46 534.21 630.59 534.81 630.65 535.11 C 630.09 535.56 628.96 536.46 628.39 536.91 C 628.46 537.21 628.59 537.81 628.65 538.11 C 628.09 538.56 626.96 539.46 626.39 539.91 C 626.46 540.21 626.59 540.81 626.65 541.11 C 626.09 541.56 624.96 542.46 624.39 542.91 C 624.46 543.21 624.59 543.81 624.65 544.11 C 624.09 544.56 622.96 545.46 622.39 545.91 C 622.46 546.21 622.59 546.81 622.65 547.11 C 622.09 547.56 620.96 548.46 620.39 548.91 C 620.46 549.21 620.59 549.81 620.65 550.11 C 620.09 550.56 618.96 551.46 618.39 551.91 C 618.46 552.21 618.59 552.81 618.65 553.11 C 618.09 553.56 616.96 554.46 616.39 554.91 C 616.46 555.21 616.59 555.81 616.65 556.11 C 616.09 556.56 614.96 557.46 614.39 557.91 C 614.46 558.21 614.59 558.81 614.65 559.11 C 614.09 559.56 612.96 560.46 612.39 560.91 C 612.46 561.21 612.59 561.81 612.65 562.11 C 612.09 562.56 610.96 563.46 610.39 563.91 C 610.46 564.21 610.59 564.81 610.65 565.11 C 610.09 565.56 608.96 566.46 608.39 566.91 C 608.46 567.21 608.59 567.81 608.65 568.11 C 608.09 568.56 606.96 569.46 606.39 569.91 C 606.46 570.21 606.59 570.81 606.65 571.11 C 606.09 571.56 604.96 572.46 604.39 572.91 C 604.46 573.21 604.59 573.81 604.65 574.11 C 604.09 574.56 602.96 575.46 602.39 575.91 C 602.46 576.21 602.59 576.81 602.65 577.11 C 602.09 577.56 600.96 578.46 600.39 578.91 C 600.46 579.21 600.59 579.81 600.65 580.11 C 600.09 580.56 598.96 581.46 598.40 581.91 C 598.46 582.21 598.59 582.81 598.65 583.11 C 598.09 583.56 596.96 584.46 596.39 584.91 C 596.46 585.21 596.59 585.81 596.65 586.11 C 596.09 586.56 594.96 587.46 594.40 587.91 C 594.46 588.21 594.59 588.81 594.65 589.11 C 594.09 589.56 592.96 590.46 592.40 590.91 C 592.46 591.21 592.59 591.81 592.65 592.11 C 592.09 592.56 590.96 593.46 590.40 593.91 C 590.46 594.21 590.59 594.81 590.65 595.11 C 590.09 595.56 588.96 596.46 588.40 596.91 C 588.46 597.21 588.59 597.81 588.65 598.11 C 588.09 598.56 586.96 599.46 586.40 599.91 C 586.46 600.21 586.59 600.81 586.65 601.11 C 586.09 601.56 584.96 602.46 584.40 602.91 C 584.46 603.21 584.59 603.81 584.65 604.11 C 584.09 604.56 582.96 605.46 582.40 605.91 C 582.46 606.21 582.59 606.81 582.65 607.11 C 582.09 607.56 580.96 608.46 580.40 608.91 C 580.46 609.21 580.59 609.81 580.65 610.11 C 580.09 610.56 578.96 611.46 578.40 611.91 C 578.46 612.21 578.59 612.81 578.65 613.11 C 578.09 613.56 576.96 614.46 576.40 614.91 C 576.46 615.21 576.59 615.81 576.65 616.11 C 576.09 616.56 574.96 617.46 574.40 617.91 C 574.46 618.21 574.59 618.81 574.65 619.11 C 574.09 619.56 572.96 620.46 572.40 620.91 C 572.46 621.21 572.59 621.81 572.65 622.11 C 572.09 622.56 570.97 623.46 570.41 623.90 C 570.47 624.21 570.58 624.82 570.64 625.12 C 569.87 625.73 569.11 626.35 568.35 626.97 L 568.70 628.06 C 568.13 628.53 566.98 629.45 566.41 629.91 C 566.47 630.21 566.58 630.82 566.64 631.12 C 565.88 631.72 565.13 632.32 564.38 632.93 L 564.68 634.09 C 564.11 634.54 562.97 635.46 562.40 635.91 C 562.46 636.21 562.59 636.82 562.65 637.12 C 561.88 637.73 561.11 638.34 560.35 638.97 L 560.70 640.06 C 560.14 640.52 559.01 641.43 558.45 641.89 C 558.48 642.17 558.53 642.73 558.56 643.01 C 556.84 645.00 555.18 647.02 553.47 649.02 C 553.50 649.29 553.57 649.85 553.60 650.13 C 553.05 650.57 551.94 651.47 551.39 651.91 C 551.45 652.21 551.58 652.81 551.64 653.11 C 551.08 653.56 549.95 654.46 549.39 654.91 C 549.45 655.21 549.58 655.81 549.64 656.11 C 549.08 656.56 547.95 657.46 547.39 657.91 C 547.45 658.21 547.58 658.81 547.64 659.11 C 547.08 659.56 545.95 660.46 545.39 660.91 C 545.45 661.21 545.58 661.81 545.64 662.11 C 545.08 662.56 543.95 663.46 543.39 663.91 C 543.45 664.21 543.58 664.81 543.64 665.11 C 543.08 665.56 541.95 666.46 541.39 666.91 C 541.45 667.21 541.57 667.81 541.64 668.12 C 540.86 668.73 540.10 669.34 539.34 669.97 L 539.69 671.06 C 539.12 671.53 537.96 672.45 537.38 672.91 C 537.45 673.21 537.58 673.81 537.65 674.11 C 537.08 674.56 535.95 675.46 535.38 675.91 C 535.45 676.21 535.58 676.81 535.65 677.11 C 535.08 677.56 533.95 678.46 533.39 678.91 C 533.45 679.21 533.58 679.81 533.65 680.10 C 533.08 680.56 531.95 681.46 531.39 681.91 C 531.45 682.21 531.58 682.81 531.65 683.11 C 531.08 683.56 529.95 684.46 529.38 684.92 C 529.45 685.21 529.58 685.81 529.65 686.11 C 529.08 686.56 527.95 687.46 527.39 687.91 C 527.45 688.21 527.58 688.81 527.65 689.11 C 527.08 689.56 525.95 690.46 525.39 690.91 C 525.45 691.21 525.58 691.81 525.65 692.11 C 525.08 692.56 523.95 693.46 523.39 693.91 C 523.45 694.21 523.58 694.81 523.65 695.11 C 523.08 695.56 521.95 696.46 521.39 696.91 C 521.45 697.21 521.58 697.81 521.65 698.11 C 521.08 698.56 519.95 699.46 519.39 699.91 C 519.45 700.21 519.58 700.81 519.65 701.11 C 519.08 701.56 517.95 702.46 517.39 702.91 C 517.45 703.21 517.58 703.81 517.65 704.11 C 517.08 704.56 515.96 705.46 515.39 705.91 C 515.46 706.21 515.58 706.81 515.65 707.11 C 515.08 707.56 513.96 708.46 513.39 708.91 C 513.46 709.21 513.58 709.81 513.65 710.11 C 513.08 710.56 511.96 711.46 511.39 711.91 C 511.46 712.21 511.58 712.81 511.65 713.10 C 511.10 713.55 510.00 714.44 509.44 714.89 C 509.47 715.16 509.51 715.69 509.53 715.96 C 503.36 724.60 495.18 731.43 487.98 739.15 C 486.85 739.74 485.73 740.37 484.61 740.97 C 484.56 741.34 484.45 742.09 484.40 742.46 C 484.04 742.46 483.30 742.47 482.93 742.47 C 481.63 743.48 480.36 744.54 479.06 745.56 L 478.28 745.73 C 476.86 746.71 475.41 747.65 473.97 748.61 C 473.74 748.56 473.28 748.48 473.05 748.44 C 471.80 749.39 470.53 750.32 469.26 751.26 C 467.43 751.87 465.63 752.56 463.86 753.34 L 463.08 753.59 C 462.29 754.00 461.50 754.41 460.72 754.82 C 452.11 757.74 443.41 760.69 434.27 761.34 C 434.49 761.41 434.91 761.55 435.13 761.62 C 418.62 763.39 401.76 761.61 386.15 755.85 C 385.76 755.71 384.99 755.44 384.60 755.31 C 383.40 754.80 382.22 754.30 381.04 753.81 C 379.26 753.12 377.50 752.41 375.78 751.61 L 375.07 751.54 C 373.71 750.73 372.35 749.90 370.99 749.12 C 370.51 748.69 369.55 747.85 369.07 747.42 C 368.81 747.46 368.30 747.52 368.04 747.55 C 365.81 745.89 363.50 744.35 361.16 742.86 C 360.44 742.33 359.72 741.80 359.02 741.27 C 358.51 740.98 357.49 740.40 356.99 740.10 C 356.33 739.40 355.67 738.71 355.03 738.01 C 347.28 729.87 338.24 722.76 332.51 712.92 C 332.52 712.66 332.54 712.14 332.54 711.88 C 332.01 711.44 330.94 710.56 330.41 710.12 C 330.43 709.86 330.47 709.33 330.49 709.06 C 328.55 706.77 326.68 704.40 325.05 701.88 C 324.63 701.40 323.78 700.46 323.35 699.98 L 323.64 698.97 C 322.87 698.34 322.11 697.73 321.36 697.12 C 321.42 696.82 321.53 696.21 321.59 695.91 C 321.03 695.46 319.91 694.56 319.35 694.11 C 319.41 693.81 319.54 693.21 319.60 692.91 C 319.04 692.46 317.91 691.56 317.35 691.11 C 317.41 690.81 317.54 690.21 317.60 689.91 C 317.04 689.46 315.91 688.56 315.35 688.11 C 315.41 687.81 315.54 687.21 315.60 686.92 C 315.04 686.46 313.91 685.56 313.35 685.11 C 313.41 684.81 313.54 684.21 313.60 683.91 C 313.04 683.46 311.91 682.56 311.35 682.11 C 311.41 681.81 311.54 681.21 311.60 680.91 C 311.04 680.46 309.91 679.56 309.35 679.11 C 309.41 678.81 309.54 678.21 309.60 677.91 C 309.04 677.46 307.91 676.56 307.35 676.11 C 307.41 675.81 307.54 675.21 307.60 674.91 C 307.04 674.46 305.91 673.56 305.35 673.11 C 305.41 672.81 305.54 672.21 305.60 671.91 C 305.04 671.46 303.91 670.56 303.35 670.11 C 303.41 669.81 303.54 669.21 303.60 668.91 C 303.04 668.46 301.91 667.56 301.35 667.11 C 301.41 666.81 301.54 666.21 301.60 665.91 C 301.04 665.46 299.91 664.56 299.35 664.11 C 299.41 663.81 299.54 663.21 299.60 662.91 C 299.04 662.46 297.91 661.56 297.35 661.11 C 297.41 660.81 297.54 660.21 297.60 659.91 C 297.04 659.46 295.91 658.56 295.35 658.11 C 295.41 657.81 295.54 657.21 295.60 656.91 C 295.04 656.46 293.91 655.56 293.35 655.11 C 293.41 654.81 293.54 654.21 293.61 653.91 C 293.04 653.46 291.91 652.56 291.35 652.11 C 291.41 651.81 291.54 651.21 291.61 650.91 C 291.04 650.46 289.91 649.56 289.35 649.11 C 289.41 648.81 289.54 648.21 289.61 647.91 C 289.04 647.46 287.91 646.56 287.35 646.11 C 287.41 645.81 287.54 645.21 287.61 644.91 C 287.04 644.46 285.91 643.56 285.35 643.11 C 285.41 642.81 285.54 642.21 285.61 641.91 C 285.05 641.46 283.93 640.57 283.37 640.12 C 283.41 639.84 283.51 639.27 283.55 638.99 C 283.13 638.52 282.30 637.58 281.88 637.11 C 281.02 636.04 280.22 634.95 279.48 633.82 C 279.50 633.59 279.55 633.14 279.58 632.91 C 279.02 632.46 277.91 631.55 277.35 631.10 C 277.42 630.81 277.54 630.21 277.61 629.91 C 277.04 629.46 275.91 628.56 275.35 628.11 C 275.41 627.81 275.54 627.21 275.61 626.91 C 275.04 626.46 273.91 625.56 273.35 625.11 C 273.41 624.81 273.54 624.21 273.61 623.91 C 273.04 623.46 271.92 622.56 271.35 622.11 C 271.42 621.81 271.54 621.21 271.61 620.91 C 271.04 620.46 269.92 619.56 269.35 619.11 C 269.42 618.81 269.54 618.21 269.61 617.91 C 269.04 617.46 267.91 616.56 267.35 616.11 C 267.42 615.81 267.55 615.21 267.61 614.91 C 267.05 614.46 265.91 613.56 265.35 613.11 C 265.42 612.81 265.55 612.21 265.61 611.91 C 265.05 611.46 263.92 610.56 263.35 610.11 C 263.42 609.81 263.55 609.21 263.61 608.91 C 263.05 608.46 261.92 607.56 261.35 607.11 C 261.42 606.81 261.55 606.21 261.61 605.91 C 261.05 605.46 259.92 604.56 259.35 604.11 C 259.42 603.81 259.55 603.21 259.61 602.91 C 259.05 602.46 257.92 601.56 257.35 601.11 C 257.42 600.81 257.55 600.21 257.61 599.91 C 257.05 599.46 255.92 598.56 255.35 598.11 C 255.42 597.81 255.55 597.21 255.61 596.91 C 255.05 596.46 253.92 595.56 253.35 595.11 C 253.42 594.81 253.55 594.21 253.61 593.91 C 253.05 593.46 251.92 592.56 251.35 592.11 C 251.42 591.81 251.55 591.21 251.61 590.91 C 251.05 590.46 249.92 589.56 249.35 589.11 C 249.42 588.81 249.55 588.21 249.61 587.91 C 249.05 587.46 247.92 586.56 247.35 586.11 C 247.42 585.81 247.55 585.21 247.61 584.91 C 247.05 584.46 245.92 583.56 245.35 583.11 C 245.42 582.81 245.55 582.21 245.61 581.91 C 245.05 581.46 243.92 580.56 243.35 580.11 C 243.42 579.81 243.55 579.21 243.61 578.91 C 243.05 578.46 241.92 577.56 241.36 577.11 C 241.42 576.81 241.55 576.21 241.61 575.91 C 241.05 575.46 239.92 574.56 239.35 574.11 C 239.42 573.81 239.55 573.21 239.62 572.91 C 239.04 572.45 237.88 571.53 237.31 571.07 L 237.66 569.97 C 236.89 569.34 236.12 568.72 235.36 568.11 C 235.42 567.81 235.55 567.21 235.61 566.91 C 235.05 566.46 233.92 565.56 233.36 565.11 C 233.42 564.81 233.55 564.21 233.61 563.91 C 233.05 563.46 231.92 562.56 231.36 562.11 C 231.42 561.81 231.55 561.21 231.61 560.91 C 231.05 560.46 229.92 559.56 229.36 559.11 C 229.42 558.81 229.55 558.21 229.62 557.91 C 229.05 557.46 227.92 556.56 227.36 556.11 C 227.42 555.81 227.55 555.21 227.61 554.91 C 227.05 554.46 225.92 553.56 225.36 553.11 C 225.42 552.81 225.55 552.21 225.61 551.92 C 225.06 551.47 223.96 550.57 223.41 550.12 C 223.42 549.89 223.46 549.42 223.48 549.18 C 222.62 548.03 221.87 546.80 220.91 545.74 C 220.69 545.64 220.24 545.43 220.02 545.32 C 219.43 544.14 218.82 542.98 218.23 541.82 C 217.77 541.38 216.83 540.51 216.37 540.07 C 216.42 539.78 216.54 539.20 216.59 538.91 C 216.03 538.46 214.91 537.56 214.35 537.11 C 214.41 536.81 214.54 536.21 214.60 535.91 C 214.04 535.46 212.91 534.56 212.35 534.11 C 212.41 533.81 212.54 533.21 212.60 532.91 C 212.04 532.46 210.91 531.56 210.35 531.11 C 210.41 530.81 210.54 530.21 210.60 529.91 C 210.04 529.46 208.91 528.56 208.35 528.11 C 208.41 527.81 208.54 527.21 208.60 526.91 C 208.03 526.46 206.89 525.54 206.32 525.09 L 206.62 523.93 C 205.86 523.32 205.11 522.72 204.36 522.13 C 204.42 521.82 204.53 521.21 204.59 520.91 C 204.03 520.46 202.92 519.57 202.36 519.12 C 202.41 518.84 202.50 518.28 202.55 517.99 C 202.13 517.52 201.29 516.58 200.88 516.11 C 200.02 515.04 199.22 513.95 198.48 512.82 C 198.50 512.59 198.55 512.14 198.57 511.91 C 198.01 511.46 196.90 510.56 196.35 510.10 C 196.41 509.81 196.54 509.21 196.60 508.91 C 196.04 508.46 194.91 507.56 194.35 507.11 C 194.41 506.81 194.54 506.21 194.61 505.91 C 194.03 505.45 192.87 504.53 192.30 504.07 L 192.65 502.97 C 191.88 502.35 191.12 501.73 190.35 501.12 C 190.42 500.82 190.54 500.21 190.60 499.91 C 190.04 499.46 188.91 498.56 188.35 498.11 C 188.41 497.81 188.54 497.21 188.61 496.91 C 188.04 496.46 186.91 495.56 186.35 495.11 C 186.41 494.81 186.54 494.21 186.61 493.91 C 186.04 493.46 184.91 492.56 184.35 492.11 C 184.41 491.81 184.54 491.21 184.61 490.91 C 184.04 490.46 182.91 489.56 182.35 489.11 C 182.41 488.81 182.54 488.21 182.61 487.91 C 182.04 487.46 180.91 486.56 180.35 486.11 C 180.41 485.81 180.54 485.21 180.61 484.91 C 180.04 484.46 178.91 483.56 178.35 483.11 C 178.41 482.81 178.54 482.21 178.61 481.91 C 178.04 481.46 176.91 480.56 176.35 480.11 C 176.41 479.81 176.54 479.21 176.61 478.91 C 176.04 478.46 174.91 477.56 174.35 477.11 C 174.41 476.81 174.54 476.21 174.61 475.91 C 174.04 475.46 172.91 474.56 172.35 474.11 C 172.41 473.81 172.54 473.21 172.61 472.91 C 172.04 472.46 170.91 471.56 170.35 471.11 C 170.41 470.81 170.54 470.21 170.61 469.91 C 170.04 469.46 168.91 468.56 168.35 468.11 C 168.41 467.81 168.54 467.21 168.61 466.91 C 168.04 466.46 166.91 465.56 166.35 465.11 C 166.41 464.81 166.54 464.21 166.61 463.91 C 166.03 463.45 164.88 462.53 164.30 462.07 L 164.66 460.97 C 163.89 460.35 163.12 459.73 162.36 459.12 C 162.42 458.81 162.54 458.21 162.61 457.91 C 162.04 457.46 160.91 456.56 160.35 456.11 C 160.41 455.81 160.55 455.21 160.61 454.91 C 160.05 454.46 158.92 453.56 158.35 453.11 C 158.42 452.81 158.55 452.21 158.61 451.91 C 158.04 451.46 156.91 450.56 156.35 450.11 C 156.41 449.81 156.55 449.21 156.61 448.91 C 156.03 448.45 154.87 447.52 154.30 447.06 L 154.66 445.97 C 153.89 445.35 153.12 444.73 152.36 444.11 C 152.42 443.81 152.54 443.21 152.61 442.91 C 152.04 442.46 150.91 441.56 150.35 441.11 C 150.42 440.81 150.55 440.21 150.61 439.91 C 150.05 439.46 148.92 438.56 148.35 438.11 C 148.42 437.81 148.55 437.21 148.61 436.91 C 148.05 436.46 146.92 435.56 146.35 435.11 C 146.42 434.81 146.55 434.21 146.61 433.91 C 146.05 433.46 144.92 432.56 144.35 432.11 C 144.42 431.81 144.55 431.21 144.61 430.91 C 144.05 430.46 142.92 429.56 142.35 429.11 C 142.42 428.81 142.55 428.21 142.61 427.91 C 142.05 427.46 140.92 426.56 140.35 426.11 C 140.42 425.81 140.55 425.21 140.61 424.91 C 140.05 424.46 138.92 423.56 138.35 423.11 C 138.42 422.81 138.55 422.21 138.61 421.91 C 138.05 421.46 136.92 420.56 136.35 420.11 C 136.42 419.81 136.55 419.21 136.61 418.91 C 136.05 418.46 134.92 417.56 134.36 417.12 C 134.42 416.81 134.55 416.20 134.61 415.89 C 134.04 415.45 132.91 414.56 132.35 414.11 C 132.42 413.81 132.55 413.21 132.62 412.91 C 132.05 412.46 130.92 411.56 130.35 411.11 C 130.42 410.81 130.55 410.21 130.62 409.91 C 130.05 409.46 128.92 408.56 128.35 408.11 C 128.42 407.81 128.55 407.21 128.62 406.91 C 128.05 406.46 126.92 405.56 126.36 405.11 C 126.42 404.81 126.55 404.21 126.62 403.91 C 126.05 403.46 124.92 402.56 124.36 402.11 C 124.42 401.81 124.55 401.21 124.62 400.91 C 124.05 400.46 122.92 399.56 122.36 399.11 C 122.42 398.81 122.55 398.21 122.62 397.91 C 122.05 397.46 120.92 396.56 120.36 396.11 C 120.42 395.81 120.55 395.21 120.62 394.91 C 120.05 394.46 118.92 393.56 118.36 393.11 C 118.42 392.81 118.55 392.21 118.62 391.91 C 118.05 391.46 116.92 390.56 116.36 390.11 C 116.42 389.81 116.55 389.21 116.62 388.91 C 116.05 388.46 114.92 387.56 114.36 387.11 C 114.42 386.81 114.55 386.21 114.62 385.91 C 114.05 385.46 112.92 384.56 112.36 384.11 C 112.42 383.81 112.55 383.21 112.62 382.91 C 112.05 382.46 110.92 381.56 110.36 381.11 C 110.42 380.81 110.55 380.21 110.61 379.92 C 110.06 379.47 108.95 378.58 108.40 378.13 C 108.42 377.86 108.47 377.33 108.49 377.07 C 106.55 374.77 104.68 372.41 103.05 369.88 C 102.64 369.42 101.81 368.49 101.40 368.03 C 101.45 367.75 101.53 367.19 101.58 366.91 C 101.02 366.46 99.91 365.56 99.35 365.11 C 99.41 364.81 99.53 364.21 99.60 363.91 C 99.03 363.46 97.91 362.56 97.35 362.11 C 97.41 361.81 97.54 361.21 97.60 360.91 C 97.04 360.46 95.91 359.56 95.35 359.11 C 95.41 358.81 95.54 358.21 95.60 357.91 C 95.03 357.46 93.89 356.54 93.32 356.09 L 93.62 354.93 C 92.87 354.32 92.11 353.72 91.36 353.12 C 91.42 352.82 91.54 352.21 91.59 351.91 C 91.02 351.45 89.88 350.54 89.31 350.08 L 89.63 348.93 C 88.87 348.33 88.12 347.73 87.36 347.13 C 87.42 346.82 87.53 346.21 87.59 345.91 C 87.03 345.46 85.91 344.56 85.35 344.11 C 85.41 343.81 85.54 343.21 85.60 342.91 C 85.04 342.46 83.91 341.56 83.35 341.11 C 83.41 340.81 83.54 340.22 83.60 339.92 C 83.06 339.48 81.98 338.59 81.43 338.15 C 81.43 337.90 81.41 337.42 81.40 337.17 C 80.09 335.12 78.91 332.98 77.67 330.88 C 77.55 330.71 77.31 330.38 77.19 330.21 C 72.47 321.14 69.34 311.23 67.58 301.17 C 67.35 294.78 67.56 288.37 67.48 281.98 C 68.22 269.22 73.74 257.51 78.35 245.80 C 82.58 235.96 87.07 226.22 92.22 216.82 C 92.34 216.65 92.60 216.31 92.72 216.14 C 94.30 213.41 95.66 210.56 97.26 207.84 C 97.36 207.66 97.56 207.30 97.65 207.12 C 98.91 205.02 100.08 202.88 101.40 200.83 C 101.41 200.58 101.43 200.10 101.44 199.86 C 101.97 199.42 103.03 198.54 103.56 198.10 C 103.54 197.84 103.49 197.30 103.47 197.04 C 104.49 195.68 105.48 194.31 106.49 192.96 C 106.47 192.68 106.43 192.13 106.41 191.85 C 107.15 191.26 107.89 190.66 108.63 190.07 L 108.33 188.92 C 108.89 188.47 110.00 187.56 110.56 187.11 C 110.54 186.84 110.50 186.31 110.48 186.04 C 111.49 184.69 112.46 183.31 113.47 181.96 C 113.46 181.72 113.46 181.24 113.46 181.00 C 114.30 180.04 115.12 179.05 115.98 178.09 C 116.97 176.72 117.92 175.32 118.88 173.92 C 119.19 173.45 119.81 172.51 120.12 172.04 C 123.48 167.68 126.86 163.34 129.95 158.79 C 130.20 158.64 130.72 158.34 130.97 158.19 C 135.52 151.47 141.47 145.90 146.47 139.55 C 155.03 130.96 163.56 122.33 172.23 113.85 C 172.34 113.61 172.56 113.14 172.66 112.90 C 173.77 112.32 174.88 111.74 175.99 111.16 C 176.63 110.40 177.26 109.63 177.90 108.86 C 179.54 107.46 181.26 106.17 183.04 104.96 C 183.69 104.25 184.34 103.54 184.99 102.82 C 186.11 102.23 187.23 101.63 188.36 101.05 C 188.42 100.79 188.54 100.25 188.60 99.99 C 189.21 99.61 190.42 98.86 191.03 98.49 C 191.26 98.48 191.73 98.47 191.97 98.46 C 193.96 97.02 196.02 95.70 198.07 94.35 L 199.26 94.74 C 199.37 94.39 199.59 93.68 199.70 93.32 L 200.76 93.47 C 202.49 92.61 204.26 91.86 206.03 91.12 Z" />
</g>
</svg>
